<svg width="40" height="40" viewBox="0 0 40 40" fill="none" xmlns="http://www.w3.org/2000/svg">
<g clip-path="url(#clip0_1_289)">
<path d="M20 40C31.0457 40 40 31.0457 40 20C40 8.95431 31.0457 0 20 0C8.95431 0 0 8.95431 0 20C0 31.0457 8.95431 40 20 40Z" fill="#007AB9"/>
<path d="M31.948 21.6095V29.855H27.1674V22.1621C27.1674 20.2305 26.4772 18.9113 24.7463 18.9113C23.4254 18.9113 22.6407 19.7994 22.2942 20.6593C22.1683 20.9667 22.1359 21.3934 22.1359 21.8244V29.8547H17.355C17.355 29.8547 17.4191 16.8253 17.355 15.4766H22.1362V17.5141C22.1266 17.5302 22.1131 17.5459 22.1045 17.5612H22.1362V17.5141C22.7715 16.5366 23.9046 15.139 26.4448 15.139C29.59 15.139 31.948 17.194 31.948 21.6095ZM12.3537 8.5459C10.7184 8.5459 9.64844 9.61938 9.64844 11.0298C9.64844 12.4102 10.6873 13.5147 12.291 13.5147H12.322C13.9894 13.5147 15.0262 12.4102 15.0262 11.0298C14.9944 9.61938 13.9894 8.5459 12.3537 8.5459ZM9.93258 29.855H14.7117V15.4766H9.93258V29.855Z" fill="#F1F2F2"/>
</g>
<defs>
<clipPath id="clip0_1_289">
<rect width="40" height="40" fill="white"/>
</clipPath>
</defs>
</svg>
