<svg width="219" height="48" viewBox="0 0 219 48" fill="none" xmlns="http://www.w3.org/2000/svg">
<g clip-path="url(#clip0_1_299)">
<path d="M2.07224 29.6533V42.8749C2.07222 42.9843 2.09376 43.0926 2.13562 43.1937C2.17749 43.2948 2.23885 43.3866 2.31621 43.464C2.39357 43.5413 2.48542 43.6027 2.5865 43.6446C2.68758 43.6864 2.79591 43.708 2.90532 43.708H15.0519C15.1613 43.708 15.2696 43.6864 15.3707 43.6446C15.4717 43.6027 15.5635 43.5413 15.6409 43.464C15.7182 43.3866 15.7796 43.2948 15.8215 43.1937C15.8633 43.0927 15.8849 42.9844 15.8849 42.875V29.6533H2.07224Z" fill="#FCE8CB"/>
<path d="M15.8852 29.3604H2.07252C1.91118 29.3604 1.78024 29.4909 1.78024 29.6526V42.8742C1.78024 43.495 2.28529 43.9995 2.9056 43.9995H15.0518C15.6725 43.9995 16.1775 43.4949 16.1775 42.8743V29.6526C16.1775 29.4909 16.047 29.3604 15.8852 29.3604ZM15.593 42.8742C15.5928 43.0176 15.5358 43.155 15.4344 43.2564C15.333 43.3578 15.1955 43.4148 15.0522 43.415H2.9056C2.76225 43.4148 2.62482 43.3578 2.52346 43.2564C2.4221 43.1551 2.36507 43.0176 2.36489 42.8743V29.9449H15.593V42.8742Z" fill="#3A312A"/>
<path d="M2.07224 33.4307H15.885V39.9304H2.07224V33.4307Z" fill="#F16C7A"/>
<path d="M15.8852 33.1377H2.07252C1.995 33.1377 1.92066 33.1685 1.86585 33.2233C1.81104 33.2781 1.78024 33.3525 1.78024 33.43V39.9293C1.78024 40.091 1.91118 40.2216 2.07252 40.2216H15.8852C16.047 40.2216 16.1775 40.091 16.1775 39.9293V33.43C16.1775 33.2686 16.047 33.1377 15.8852 33.1377ZM15.593 39.6374H2.36479V33.7226H15.593V39.6374Z" fill="#3A312A"/>
<path d="M16.6317 26.5957H1.32598C1.26319 26.5957 1.20101 26.608 1.14298 26.632C1.08496 26.656 1.03223 26.6912 0.987814 26.7356C0.943394 26.78 0.908152 26.8327 0.884098 26.8907C0.860045 26.9487 0.847651 27.0109 0.847626 27.0737V29.2242C0.847626 29.4883 1.06196 29.7022 1.32598 29.7022H16.6317C16.6944 29.7022 16.7566 29.6899 16.8146 29.6658C16.8726 29.6418 16.9253 29.6066 16.9697 29.5622C17.014 29.5178 17.0492 29.4652 17.0733 29.4072C17.0973 29.3492 17.1096 29.287 17.1096 29.2242V27.0737C17.1096 27.0109 17.0973 26.9487 17.0733 26.8907C17.0492 26.8327 17.014 26.7801 16.9697 26.7357C16.9253 26.6913 16.8726 26.6561 16.8146 26.6321C16.7566 26.608 16.6944 26.5957 16.6317 26.5957Z" fill="#87796F"/>
<path d="M16.6319 26.3039H8.33064C8.25312 26.3039 8.17878 26.3347 8.12397 26.3895C8.06916 26.4443 8.03836 26.5187 8.03836 26.5962C8.03836 26.6737 8.06916 26.748 8.12397 26.8029C8.17878 26.8577 8.25312 26.8885 8.33064 26.8885H16.6319C16.7342 26.8885 16.8176 26.9718 16.8176 27.0742V29.2247C16.8176 29.327 16.7343 29.4104 16.6319 29.4104H1.32627C1.27704 29.4103 1.22985 29.3907 1.19505 29.3559C1.16024 29.3211 1.14065 29.2739 1.14057 29.2247V27.0742C1.14057 26.9719 1.22397 26.8885 1.32627 26.8885H5.77586C5.85338 26.8885 5.92772 26.8577 5.98253 26.8029C6.03734 26.748 6.06814 26.6737 6.06814 26.5962C6.06814 26.5187 6.03734 26.4443 5.98253 26.3895C5.92772 26.3347 5.85338 26.3039 5.77586 26.3039H1.32627C0.901492 26.3039 0.555634 26.6491 0.555634 27.0742V29.2247C0.555634 29.6495 0.9012 29.995 1.32627 29.995H16.6315C17.0563 29.995 17.4022 29.6498 17.4022 29.2247V27.0742C17.4022 26.6494 17.0566 26.3039 16.6319 26.3039Z" fill="#3A312A"/>
<path d="M12.9013 4.29199H18.7742V5.87856H12.9013V4.29199Z" fill="#87796F"/>
<path d="M18.7737 4H12.9009C12.8233 4 12.749 4.03079 12.6942 4.08561C12.6394 4.14042 12.6086 4.21476 12.6086 4.29228V5.87884C12.6086 6.04057 12.7395 6.17112 12.9009 6.17112H18.7737C18.9355 6.17112 19.066 6.04057 19.066 5.87884V4.29228C19.066 4.13094 18.9355 4 18.7737 4ZM18.4815 5.58657H13.1931V4.58455H18.4815V5.58657Z" fill="#3A312A"/>
<path d="M16.09 5.87885H18.0427V11.7974H16.09V5.87885Z" fill="#87796F"/>
<path d="M18.0428 5.58691H16.0901C16.0126 5.58691 15.9382 5.61771 15.8834 5.67252C15.8286 5.72733 15.7978 5.80167 15.7978 5.87919V11.7978C15.7978 11.9595 15.9288 12.09 16.0901 12.09H18.0428C18.2045 12.09 18.3351 11.9595 18.3351 11.7978V5.87919C18.3351 5.71785 18.2045 5.58691 18.0428 5.58691ZM17.7505 11.5055H16.3824V6.17146H17.7505V11.5055Z" fill="#3A312A"/>
<path d="M20.5925 14.3545H13.6269C12.9895 14.3545 12.4726 14.8713 12.4726 15.5088V42.553C12.4726 43.1905 12.9895 43.7072 13.6269 43.7072H20.5924C21.2299 43.7072 21.7467 43.1905 21.7467 42.553V15.5088C21.7467 14.8713 21.23 14.3545 20.5925 14.3545Z" fill="#F16C7A"/>
<path d="M20.5926 14.0625H13.627C12.8293 14.0625 12.1804 14.7118 12.1804 15.5091V18.9118C12.1804 18.9893 12.2112 19.0636 12.266 19.1184C12.3208 19.1733 12.3951 19.2041 12.4727 19.2041C12.5502 19.2041 12.6245 19.1733 12.6793 19.1184C12.7341 19.0636 12.7649 18.9893 12.7649 18.9118V15.5091C12.7649 15.0342 13.1517 14.6471 13.627 14.6471H20.5925C21.0679 14.6471 21.4545 15.0342 21.4545 15.5091V42.5533C21.4545 43.0287 21.0678 43.4153 20.5925 43.4153H13.627C13.1516 43.4153 12.7649 43.0287 12.7649 42.5533V21.554C12.7649 21.4765 12.7341 21.4022 12.6793 21.3474C12.6245 21.2926 12.5502 21.2618 12.4727 21.2618C12.3951 21.2618 12.3208 21.2926 12.266 21.3474C12.2112 21.4022 12.1804 21.4765 12.1804 21.554V42.5533C12.1804 43.351 12.8297 43.9998 13.627 43.9998H20.5925C21.3902 43.9998 22.039 43.3506 22.039 42.5533V15.5091C22.0394 14.7118 21.3903 14.0625 20.5926 14.0625Z" fill="#3A312A"/>
<path d="M19.429 11.126H14.7914C14.2343 11.126 13.7802 11.578 13.7802 12.1374V14.3546H20.4402V12.1374C20.4402 11.578 19.9863 11.126 19.429 11.126Z" fill="#FCE8CB"/>
<path d="M19.4284 10.834H14.7907C14.0722 10.834 13.4873 11.4188 13.4873 12.1377V14.3549C13.4873 14.5167 13.6182 14.6472 13.7795 14.6472H20.4395C20.6013 14.6472 20.7318 14.5167 20.7318 14.3549V12.1377C20.7318 11.4188 20.1473 10.834 19.4284 10.834ZM20.1473 14.0627H14.0718V12.1377C14.0718 11.7412 14.3946 11.4185 14.7908 11.4185H19.4283C19.8249 11.4185 20.1473 11.7412 20.1473 12.1377V14.0627Z" fill="#3A312A"/>
<path d="M12.4727 25.4289H21.7467V31.725H12.4727V25.4289Z" fill="#FCE8CB"/>
<path d="M21.747 25.1367H12.4727C12.3113 25.1367 12.1804 25.2672 12.1804 25.4289V31.725C12.1804 31.8025 12.2112 31.8769 12.266 31.9317C12.3208 31.9865 12.3951 32.0173 12.4727 32.0173H21.7471C21.8247 32.0173 21.899 31.9865 21.9538 31.9317C22.0086 31.8769 22.0394 31.8025 22.0394 31.725V25.4289C22.0394 25.3514 22.0086 25.2771 21.9538 25.2223C21.899 25.1675 21.8246 25.1367 21.747 25.1367ZM21.4548 31.4328H12.7649V25.7212H21.4549L21.4548 31.4328Z" fill="#3A312A"/>
<path d="M21.2187 41.0859V42.6889C21.2187 43.2514 21.6747 43.7073 22.2371 43.7073H28.9035C29.4659 43.7073 29.9219 43.2513 29.9219 42.6889V41.0859H21.2187Z" fill="#87796F"/>
<path d="M29.9212 40.7939H21.218C21.0563 40.7939 20.9258 40.9249 20.9258 41.0862V42.6892C20.9258 43.4119 21.5137 43.9998 22.2364 43.9998H28.9028C29.6255 43.9998 30.2135 43.4119 30.2135 42.6892V41.0862C30.2135 41.0087 30.1827 40.9344 30.1279 40.8796C30.0731 40.8247 29.9987 40.7939 29.9212 40.7939ZM29.6289 42.6892C29.6289 43.0896 29.3031 43.4153 28.9028 43.4153H22.2364C21.836 43.4153 21.5103 43.0896 21.5103 42.6892V41.3785H29.6293V42.6892H29.6289Z" fill="#3A312A"/>
<path d="M21.2185 36.8494H29.9217V41.0862H21.2185V36.8494Z" fill="#87796F"/>
<path d="M29.9212 36.5566H21.218C21.0563 36.5566 20.9258 36.6876 20.9258 36.8489V41.0857C20.9258 41.2475 21.0563 41.378 21.218 41.378H29.9212C30.0829 41.378 30.2135 41.2475 30.2135 41.0857V36.8489C30.2135 36.7714 30.1827 36.6971 30.1279 36.6422C30.0731 36.5874 29.9987 36.5566 29.9212 36.5566ZM29.6289 40.7935H21.5103V37.1412H29.6289V40.7935Z" fill="#3A312A"/>
<path d="M30.4102 12.7686H20.732C20.1745 12.7686 19.7323 13.2381 19.7654 13.7954L19.8221 14.7734L21.2188 36.8501H29.922L31.3103 14.7734L31.3746 13.8033C31.4138 13.244 30.9693 12.7686 30.4103 12.7686H30.4102Z" fill="#F16C7A"/>
<path d="M31.3302 12.8763C31.2124 12.7501 31.07 12.6494 30.9117 12.5805C30.7534 12.5116 30.5827 12.4759 30.4101 12.4756H20.7319C20.381 12.4756 20.0557 12.6164 19.8147 12.8714C19.6971 12.9969 19.6063 13.1449 19.5476 13.3066C19.489 13.4682 19.4639 13.6401 19.4737 13.8118L19.5304 14.7914L20.9271 36.868C20.9319 36.9422 20.9647 37.0117 21.0189 37.0626C21.0731 37.1134 21.1447 37.1417 21.219 37.1417H29.9222C29.9966 37.1417 30.0682 37.1134 30.1224 37.0624C30.1766 37.0115 30.2094 36.9418 30.2141 36.8676L31.6024 14.7921L31.6667 13.8217C31.678 13.6495 31.654 13.4768 31.5962 13.3142C31.5383 13.1517 31.4478 13.0026 31.3303 12.8763H31.3302ZM31.0828 13.7832L31.0181 14.7545L29.647 36.5575H21.4925L20.1133 14.7559L20.0566 13.7775C20.0509 13.6852 20.0642 13.5928 20.0957 13.5059C20.1272 13.4191 20.1762 13.3396 20.2398 13.2725C20.3027 13.2052 20.3788 13.1517 20.4634 13.1152C20.548 13.0787 20.6393 13.0601 20.7314 13.0605H30.4096C30.5021 13.0602 30.5937 13.0791 30.6785 13.116C30.7634 13.153 30.8396 13.2072 30.9024 13.2752C30.966 13.3426 31.0149 13.4225 31.0459 13.5098C31.0769 13.5972 31.0893 13.69 31.0824 13.7824V13.7832H31.0828Z" fill="#3A312A"/>
<path d="M30.4102 12.7686H20.732C20.1745 12.7686 19.7323 13.2381 19.7654 13.7954L19.8221 14.7734H31.3103L31.3746 13.8033C31.4138 13.244 30.9693 12.7686 30.4103 12.7686H30.4102Z" fill="#87796F"/>
<path d="M31.3302 12.8763C31.2124 12.7501 31.07 12.6494 30.9117 12.5805C30.7534 12.5116 30.5827 12.4759 30.4101 12.4756H20.7319C20.381 12.4756 20.0557 12.6164 19.8147 12.8714C19.6971 12.9969 19.6063 13.1449 19.5476 13.3066C19.489 13.4682 19.4639 13.6401 19.4737 13.8118L19.53 14.7898C19.5344 14.8643 19.5671 14.9343 19.6213 14.9855C19.6756 15.0367 19.7473 15.0653 19.8219 15.0653H31.3105C31.3846 15.0653 31.4559 15.0371 31.51 14.9864C31.5641 14.9358 31.597 14.8665 31.602 14.7925L31.6663 13.822C31.6778 13.6498 31.6539 13.477 31.5961 13.3144C31.5384 13.1517 31.4479 13.0026 31.3303 12.8763H31.3302ZM31.0828 13.7832L31.0363 14.4804H20.0977L20.057 13.7775C20.046 13.5892 20.1111 13.4095 20.2401 13.2725C20.3691 13.1355 20.5438 13.0601 20.7318 13.0601H30.41C30.5983 13.0601 30.7738 13.1366 30.9028 13.2752C30.9664 13.3425 31.0152 13.4224 31.0462 13.5096C31.0772 13.5969 31.0897 13.6897 31.0828 13.7821V13.7832Z" fill="#3A312A"/>
<path d="M26.9175 21.5686C25.1219 20.8249 23.0631 21.6774 22.3195 23.4729C21.5759 25.2685 22.4283 27.3273 24.2239 28.0709C26.0194 28.8146 28.0782 27.9621 28.8219 26.1665C29.5655 24.3707 28.713 22.3122 26.9175 21.5686Z" fill="#FCE8CB"/>
<path d="M25.5698 21.0088C23.4683 21.0088 21.7588 22.7183 21.7588 24.8198C21.7588 26.9216 23.4683 28.6311 25.5697 28.6311C27.6716 28.6311 29.3811 26.9216 29.3811 24.8199C29.3811 22.7183 27.6716 21.0088 25.5698 21.0088ZM25.5698 28.0466C23.7906 28.0466 22.3433 26.5988 22.3433 24.8199C22.3433 23.0409 23.7906 21.5933 25.5697 21.5933C27.3489 21.5933 28.7966 23.0406 28.7966 24.8198C28.7966 26.5989 27.3493 28.0466 25.5698 28.0466Z" fill="#3A312A"/>
<path d="M35.6824 20.6396H29.7177C29.6885 20.6396 29.6596 20.6453 29.6326 20.6565C29.6056 20.6676 29.581 20.684 29.5603 20.7046C29.5397 20.7253 29.5233 20.7498 29.5121 20.7768C29.5009 20.8037 29.4951 20.8327 29.4951 20.8619V22.9066C29.4952 22.9656 29.5187 23.0222 29.5604 23.0639C29.6021 23.1055 29.6587 23.129 29.7177 23.129H35.6824C35.7413 23.1289 35.7978 23.1054 35.8394 23.0637C35.8811 23.0221 35.9045 22.9656 35.9046 22.9066V20.8619C35.9046 20.8029 35.8812 20.7464 35.8395 20.7047C35.7978 20.6631 35.7413 20.6396 35.6824 20.6396Z" fill="#87796F"/>
<path d="M35.6826 20.3477H29.718C29.5815 20.3477 29.4507 20.402 29.3541 20.4984C29.2576 20.5949 29.2033 20.7257 29.2031 20.8622V22.9069C29.2032 23.0434 29.2576 23.1742 29.3541 23.2707C29.4506 23.3672 29.5815 23.4214 29.718 23.4215H35.6826C35.819 23.4213 35.9498 23.367 36.0462 23.2705C36.1427 23.1741 36.1969 23.0433 36.1971 22.9069V20.8622C36.197 20.7258 36.1427 20.595 36.0463 20.4985C35.9498 20.4021 35.819 20.3478 35.6826 20.3477ZM35.6126 22.8369H29.788V20.9322H35.6126V22.8369Z" fill="#3A312A"/>
<path d="M36.4013 28.634L36.3088 28.4935C35.4751 27.2279 35.0308 25.7456 35.0309 24.2301V23.1299H30.369V24.2301C30.3691 25.7456 29.9248 27.2279 29.0911 28.4935L28.9989 28.634C28.1651 29.8996 27.7207 31.3819 27.7207 32.8974V42.3857C27.7207 43.116 28.3127 43.7078 29.0431 43.7078H36.3572C37.0875 43.7078 37.6797 43.116 37.6797 42.3857V32.8975C37.6795 31.382 37.235 29.8997 36.4013 28.634Z" fill="#F16C7A"/>
<path d="M36.6447 28.4727L36.5525 28.3327C35.7492 27.1152 35.3215 25.6884 35.3225 24.2298V23.1292C35.3225 23.0517 35.2918 22.9773 35.2369 22.9225C35.1821 22.8677 35.1078 22.8369 35.0303 22.8369H30.3688C30.207 22.8369 30.0765 22.9678 30.0765 23.1292V24.2298C30.0776 25.6884 29.6499 27.1152 28.8465 28.3327L28.754 28.4727C27.8876 29.7855 27.4264 31.3242 27.4277 32.8971V42.3854C27.4277 43.2756 28.152 43.9998 29.0425 43.9998H36.3566C37.2467 43.9998 37.9713 43.2756 37.9713 42.3854V32.8972C37.9724 31.3242 37.5111 29.7856 36.6447 28.4727ZM37.3864 42.3851C37.3864 42.9532 36.9244 43.4152 36.3566 43.4152H29.0421C28.4742 43.4152 28.0124 42.9528 28.0124 42.3851V32.8972C28.0111 31.4385 28.4388 30.0115 29.2422 28.794L29.3344 28.654C30.2008 27.3411 30.662 25.8025 30.6607 24.2295V23.4216H34.7377V24.2295C34.7365 25.8025 35.1978 27.3411 36.0643 28.654L36.1564 28.794C36.9597 30.0116 37.3873 31.4385 37.386 32.8972V42.3852L37.3864 42.3851Z" fill="#3A312A"/>
<path d="M27.7207 33.5479H37.6794V38.8442H27.7207V33.5479Z" fill="#FCE8CB"/>
<path d="M37.6787 33.2549H27.72C27.5586 33.2549 27.4277 33.3854 27.4277 33.5472V38.8435C27.4277 38.921 27.4585 38.9953 27.5133 39.0501C27.5681 39.105 27.6425 39.1358 27.72 39.1358H37.6787C37.7562 39.1358 37.8305 39.105 37.8853 39.0501C37.9402 38.9953 37.9709 38.921 37.9709 38.8435V33.5472C37.9709 33.3854 37.84 33.2549 37.6787 33.2549ZM37.3864 38.5512H28.0123V33.8394H37.3864V38.5512Z" fill="#3A312A"/>
<path d="M7.94971 15.6004C7.75973 17.8538 5.41208 18.2096 5.41208 18.2096C7.4279 18.3043 7.93022 20.9489 7.93022 20.9489C7.97368 19.0632 10.5261 18.1815 10.5261 18.1815C8.61376 18.0672 7.94971 15.6004 7.94971 15.6004Z" fill="#F16C7A"/>
<path d="M10.5432 17.8897C8.86678 17.7897 8.23771 15.5469 8.23157 15.5242C8.19465 15.3875 8.06644 15.2985 7.92293 15.3095C7.85456 15.3157 7.79057 15.3458 7.7422 15.3946C7.69383 15.4433 7.66416 15.5075 7.65842 15.5759C7.49066 17.5663 5.4535 17.9069 5.36786 17.9206C5.29628 17.9317 5.23136 17.9689 5.18566 18.0251C5.13996 18.0813 5.11673 18.1524 5.12048 18.2248C5.12423 18.2971 5.15468 18.3655 5.20594 18.4166C5.2572 18.4678 5.32563 18.4981 5.39797 18.5017C7.15688 18.5843 7.63826 20.9796 7.64283 21.0039C7.65652 21.0748 7.69594 21.1381 7.75349 21.1816C7.81104 21.2252 7.88267 21.2459 7.95459 21.2399C8.02638 21.2338 8.0934 21.2014 8.14277 21.149C8.19213 21.0965 8.22036 21.0276 8.22203 20.9556C8.26012 19.2978 10.5975 18.4659 10.6216 18.4579C10.6854 18.4356 10.7395 18.3919 10.7748 18.3343C10.8101 18.2767 10.8244 18.2086 10.8153 18.1417C10.806 18.0747 10.7738 18.0131 10.7242 17.9672C10.6746 17.9212 10.6106 17.8939 10.5432 17.8897ZM7.89974 19.9056C7.63523 19.2959 7.17704 18.5599 6.42122 18.1763C6.99242 17.9027 7.67021 17.4137 8.01958 16.5642C8.32179 17.1628 8.83785 17.905 9.64307 18.2638C9.05745 18.5832 8.2947 19.122 7.89974 19.9056Z" fill="#CE4E61"/>
<path d="M3.72188 18.9092C3.58753 20.5027 1.92673 20.7542 1.92673 20.7542C3.35274 20.8215 3.70824 22.692 3.70824 22.692C3.73864 21.3585 5.54402 20.7347 5.54402 20.7347C4.19147 20.6537 3.72188 18.9092 3.72188 18.9092Z" fill="#F16C7A"/>
<path d="M5.56107 20.4436C4.43767 20.3763 4.00802 18.8487 4.00383 18.8331C3.98602 18.7667 3.94531 18.7088 3.88891 18.6695C3.8325 18.6302 3.76403 18.6121 3.69558 18.6184C3.62709 18.6246 3.56298 18.6548 3.51451 18.7035C3.46605 18.7523 3.43633 18.8166 3.43058 18.8852C3.31757 20.224 1.94076 20.4569 1.88289 20.4661C1.81123 20.477 1.74618 20.5141 1.70039 20.5703C1.6546 20.6265 1.63134 20.6977 1.63514 20.77C1.63879 20.8426 1.6693 20.9111 1.72074 20.9624C1.77218 21.0136 1.84086 21.0439 1.91338 21.0472C3.0893 21.1024 3.41811 22.7316 3.42113 22.7476C3.43393 22.8143 3.46958 22.8746 3.52195 22.9179C3.57433 22.9612 3.64017 22.985 3.70815 22.985C3.71614 22.985 3.72412 22.985 3.7325 22.9842C3.8044 22.9782 3.87152 22.9458 3.92098 22.8933C3.97043 22.8407 3.99873 22.7718 4.00042 22.6996C4.02585 21.5872 5.62391 21.0171 5.6395 21.0118C5.70355 20.9897 5.75796 20.9461 5.79343 20.8884C5.8289 20.8307 5.84322 20.7625 5.83396 20.6954C5.8247 20.6283 5.79243 20.5665 5.74265 20.5206C5.69288 20.4747 5.6287 20.4474 5.56107 20.4436ZM3.69363 21.7676C3.51359 21.4003 3.23768 20.9985 2.82752 20.739C3.18897 20.5361 3.54749 20.2263 3.77664 19.7811C3.9825 20.146 4.29338 20.5513 4.7391 20.7987C4.37863 21.013 3.96184 21.3326 3.69363 21.7676Z" fill="#CE4E61"/>
<path d="M3.72178 13.7148C3.58743 15.3082 1.92673 15.5602 1.92673 15.5602C3.35274 15.6272 3.70824 17.4977 3.70824 17.4977C3.73864 16.1641 5.54402 15.5404 5.54402 15.5404C4.19147 15.4593 3.72178 13.7148 3.72178 13.7148Z" fill="#F16C7A"/>
<path d="M5.56151 15.2488C4.44346 15.1823 4.01225 13.6684 4.00427 13.6391C3.98641 13.5727 3.94571 13.5148 3.88932 13.4754C3.83294 13.4361 3.76449 13.4179 3.69601 13.424C3.6275 13.4301 3.56332 13.4601 3.51479 13.5089C3.46626 13.5576 3.43649 13.6219 3.43072 13.6905C3.3181 15.0293 1.94109 15.2622 1.88332 15.2713C1.81138 15.2819 1.74599 15.319 1.69991 15.3753C1.65383 15.4315 1.63039 15.5029 1.63415 15.5756C1.63791 15.6482 1.66861 15.7168 1.72026 15.768C1.7719 15.8192 1.84077 15.8493 1.91343 15.8524C3.08935 15.9077 3.41816 17.5369 3.42118 17.5528C3.43395 17.6196 3.46959 17.6798 3.52197 17.7232C3.57435 17.7665 3.6402 17.7903 3.70819 17.7903C3.71618 17.7903 3.72417 17.7903 3.73255 17.7895C3.80446 17.7835 3.8716 17.7511 3.92105 17.6985C3.97051 17.646 3.9988 17.577 4.00047 17.5049C4.02589 16.3925 5.62396 15.8223 5.63954 15.8171C5.70345 15.7949 5.7577 15.7513 5.79308 15.6936C5.82845 15.636 5.84278 15.5678 5.83362 15.5008C5.82453 15.4338 5.79241 15.372 5.74277 15.326C5.69313 15.2801 5.62905 15.2527 5.56151 15.2488ZM3.69406 16.5728C3.51402 16.2056 3.23811 15.8037 2.82796 15.5442C3.1894 15.3413 3.54793 15.0315 3.77707 14.5859C3.98293 14.9513 4.29381 15.3565 4.73953 15.604C4.37906 15.8186 3.96227 16.1378 3.69406 16.5728Z" fill="#CE4E61"/>
<path d="M12.1812 42.5535V40.2209H10.3008V42.5535C10.3008 42.8769 10.4099 43.1749 10.5891 43.4147H12.4677C12.2814 43.1663 12.1809 42.864 12.1812 42.5535ZM10.3008 29.9951H12.1811V33.1382H10.3008V29.9951Z" fill="#CCAE8B"/>
<path d="M10.3008 33.7227H12.1811V39.6364H10.3008V33.7227Z" fill="#CE4E61"/>
<path d="M10.3008 26.8877H12.1811V29.4108H10.3008V26.8877Z" fill="#6B5B51"/>
<path d="M19.5311 14.7916V14.7897L19.5214 14.6475H17.8398L17.8475 14.7897V14.7916L18.502 25.1362H20.1857L19.5311 14.7916ZM20.9263 42.6902V36.8603L20.6204 32.0182H18.9367L19.2426 36.8603V42.6902C19.2426 42.8987 19.2952 43.0974 19.3831 43.2728C19.2427 43.3657 19.078 43.4152 18.9096 43.4151H20.5929C20.7684 43.4151 20.9301 43.3626 21.0645 43.2729C20.9739 43.092 20.9266 42.8925 20.9263 42.6902Z" fill="#CE4E61"/>
<path d="M19.4298 11.418H17.7461C18.1416 11.418 18.4651 11.7395 18.4651 12.1372V12.6201C18.3409 12.685 18.2283 12.77 18.132 12.8716C18.014 12.9966 17.9228 13.1444 17.8642 13.306C17.8055 13.4675 17.7806 13.6394 17.791 13.8109L17.8043 14.0621H19.4879L19.4743 13.8109C19.4641 13.6394 19.4891 13.4676 19.5477 13.3061C19.6064 13.1446 19.6974 12.9968 19.8153 12.8717C19.9109 12.7691 20.0237 12.6839 20.1487 12.6201V12.1372C20.1487 11.7395 19.8253 11.418 19.4298 11.418ZM20.2224 25.72H18.5392L18.8997 31.433H20.5832L20.2224 25.72Z" fill="#CCAE8B"/>
<path d="M27.4282 42.386V41.3782H25.9746V42.386C25.9746 42.7757 26.1127 43.1361 26.3467 43.4146H27.8002C27.5597 43.1258 27.4281 42.7618 27.4282 42.386ZM25.9747 37.1426H27.4281V40.7937H25.9747V37.1426Z" fill="#6B5B51"/>
<path d="M29.7176 20.3488H30.6667L30.9997 15.0664H29.5439L29.2129 20.3488H28.2641C28.1965 20.3487 28.1296 20.362 28.0671 20.3878C28.0047 20.4136 27.948 20.4515 27.9002 20.4993C27.8524 20.5471 27.8145 20.6038 27.7887 20.6663C27.7629 20.7287 27.7496 20.7956 27.7497 20.8632V21.6952C28.7356 22.3852 29.3825 23.5287 29.3825 24.8208C29.3825 26.1961 28.6496 27.4026 27.5548 28.0746C27.5035 28.1626 27.4495 28.249 27.393 28.3337L27.2995 28.4724C26.434 29.7857 25.9733 31.3243 25.9746 32.8971V36.5586H27.428V32.8971C27.4272 31.324 27.8887 29.7854 28.755 28.4723L28.8468 28.3338C29.6497 27.116 30.0772 25.689 30.076 24.2302V23.4219H29.7175C29.4351 23.4219 29.2031 23.1916 29.2031 22.9073V20.8633C29.2033 20.7269 29.2576 20.5962 29.354 20.4998C29.4504 20.4033 29.5812 20.349 29.7176 20.3488Z" fill="#CE4E61"/>
<path d="M30.9016 13.2759C30.8388 13.2078 30.7626 13.1536 30.6777 13.1167C30.5928 13.0798 30.5012 13.061 30.4086 13.0615H28.955C29.1441 13.0615 29.3195 13.1373 29.4482 13.2759C29.5116 13.3432 29.5603 13.4231 29.5912 13.5103C29.622 13.5975 29.6344 13.6902 29.6275 13.7825V13.7843L29.5806 14.4819H31.0359L31.0826 13.7843V13.7824C31.0897 13.69 31.0773 13.5971 31.0461 13.5098C31.0149 13.4225 30.9657 13.3428 30.9016 13.2759ZM33.9959 20.9333H35.611V22.8373H33.9959V20.9333Z" fill="#6B5B51"/>
<path d="M35.771 39.1362V42.3866C35.771 42.9533 35.3094 43.4153 34.7423 43.4153H36.3575C36.9245 43.4153 37.3861 42.9533 37.3861 42.3866V39.1362H35.771ZM36.1568 28.7935L36.0653 28.6554C35.1985 27.3424 34.737 25.8035 34.7381 24.2302V23.4219H33.123V24.2302C33.123 25.8065 33.5809 27.3363 34.45 28.6554L34.5414 28.7935C35.3446 30.0113 35.7722 31.4383 35.771 32.8971V33.2557H37.3861V32.8971C37.3861 31.4358 36.9614 30.0155 36.1569 28.7936L36.1568 28.7935Z" fill="#CE4E61"/>
<path d="M35.7714 33.8398H37.3865V38.5513H35.7714V33.8398Z" fill="#CCAE8B"/>
</g>
<path d="M58.7344 30.25L64.0938 12.25H69.3125L61.3906 35H57.9531L58.7344 30.25ZM53.7969 12.25L59.1406 30.25L59.9531 35H56.4844L48.6094 12.25H53.7969ZM78.25 35.3125C76.9375 35.3125 75.7604 35.1042 74.7188 34.6875C73.6771 34.2604 72.7917 33.6719 72.0625 32.9219C71.3438 32.1719 70.7917 31.3021 70.4062 30.3125C70.0208 29.3125 69.8281 28.25 69.8281 27.125V26.5C69.8281 25.2188 70.0104 24.0469 70.375 22.9844C70.7396 21.9219 71.2604 21 71.9375 20.2188C72.625 19.4375 73.4583 18.8385 74.4375 18.4219C75.4167 17.9948 76.5208 17.7812 77.75 17.7812C78.9479 17.7812 80.0104 17.9792 80.9375 18.375C81.8646 18.7708 82.6406 19.3333 83.2656 20.0625C83.901 20.7917 84.3802 21.6667 84.7031 22.6875C85.026 23.6979 85.1875 24.8229 85.1875 26.0625V27.9375H71.75V24.9375H80.7656V24.5938C80.7656 23.9688 80.651 23.4115 80.4219 22.9219C80.2031 22.4219 79.8698 22.026 79.4219 21.7344C78.974 21.4427 78.401 21.2969 77.7031 21.2969C77.1094 21.2969 76.599 21.4271 76.1719 21.6875C75.7448 21.9479 75.3958 22.3125 75.125 22.7812C74.8646 23.25 74.6667 23.8021 74.5312 24.4375C74.4062 25.0625 74.3438 25.75 74.3438 26.5V27.125C74.3438 27.8021 74.4375 28.4271 74.625 29C74.8229 29.5729 75.099 30.0677 75.4531 30.4844C75.8177 30.901 76.2552 31.224 76.7656 31.4531C77.2865 31.6823 77.875 31.7969 78.5312 31.7969C79.3438 31.7969 80.099 31.6406 80.7969 31.3281C81.5052 31.0052 82.1146 30.5208 82.625 29.875L84.8125 32.25C84.4583 32.7604 83.974 33.25 83.3594 33.7188C82.7552 34.1875 82.026 34.5729 81.1719 34.875C80.3177 35.1667 79.3438 35.3125 78.25 35.3125ZM92.5 11V35H87.9844V11H92.5ZM101.969 31.7188L105.719 18.0938H110.422L104.719 35H101.875L101.969 31.7188ZM99.3906 18.0938L103.156 31.7344L103.234 35H100.375L94.6719 18.0938H99.3906ZM120 35.3125C118.688 35.3125 117.51 35.1042 116.469 34.6875C115.427 34.2604 114.542 33.6719 113.812 32.9219C113.094 32.1719 112.542 31.3021 112.156 30.3125C111.771 29.3125 111.578 28.25 111.578 27.125V26.5C111.578 25.2188 111.76 24.0469 112.125 22.9844C112.49 21.9219 113.01 21 113.688 20.2188C114.375 19.4375 115.208 18.8385 116.188 18.4219C117.167 17.9948 118.271 17.7812 119.5 17.7812C120.698 17.7812 121.76 17.9792 122.688 18.375C123.615 18.7708 124.391 19.3333 125.016 20.0625C125.651 20.7917 126.13 21.6667 126.453 22.6875C126.776 23.6979 126.938 24.8229 126.938 26.0625V27.9375H113.5V24.9375H122.516V24.5938C122.516 23.9688 122.401 23.4115 122.172 22.9219C121.953 22.4219 121.62 22.026 121.172 21.7344C120.724 21.4427 120.151 21.2969 119.453 21.2969C118.859 21.2969 118.349 21.4271 117.922 21.6875C117.495 21.9479 117.146 22.3125 116.875 22.7812C116.615 23.25 116.417 23.8021 116.281 24.4375C116.156 25.0625 116.094 25.75 116.094 26.5V27.125C116.094 27.8021 116.188 28.4271 116.375 29C116.573 29.5729 116.849 30.0677 117.203 30.4844C117.568 30.901 118.005 31.224 118.516 31.4531C119.036 31.6823 119.625 31.7969 120.281 31.7969C121.094 31.7969 121.849 31.6406 122.547 31.3281C123.255 31.0052 123.865 30.5208 124.375 29.875L126.562 32.25C126.208 32.7604 125.724 33.25 125.109 33.7188C124.505 34.1875 123.776 34.5729 122.922 34.875C122.068 35.1667 121.094 35.3125 120 35.3125ZM137.781 18.0938V21.2812H127.938V18.0938H137.781ZM130.375 13.9219H134.875V29.9062C134.875 30.3958 134.938 30.7708 135.062 31.0312C135.198 31.2917 135.396 31.474 135.656 31.5781C135.917 31.6719 136.245 31.7188 136.641 31.7188C136.922 31.7188 137.172 31.7083 137.391 31.6875C137.62 31.6562 137.812 31.625 137.969 31.5938L137.984 34.9062C137.599 35.0312 137.182 35.1302 136.734 35.2031C136.286 35.276 135.792 35.3125 135.25 35.3125C134.26 35.3125 133.396 35.151 132.656 34.8281C131.927 34.4948 131.365 33.9635 130.969 33.2344C130.573 32.5052 130.375 31.5469 130.375 30.3594V13.9219ZM166.625 23.1094V32.125C166.271 32.5521 165.724 33.0156 164.984 33.5156C164.245 34.0052 163.292 34.4271 162.125 34.7812C160.958 35.1354 159.547 35.3125 157.891 35.3125C156.422 35.3125 155.083 35.0729 153.875 34.5938C152.667 34.1042 151.625 33.3906 150.75 32.4531C149.885 31.5156 149.219 30.3698 148.75 29.0156C148.281 27.651 148.047 26.0938 148.047 24.3438V22.9219C148.047 21.1719 148.271 19.6146 148.719 18.25C149.177 16.8854 149.828 15.7344 150.672 14.7969C151.516 13.8594 152.521 13.1458 153.688 12.6562C154.854 12.1667 156.151 11.9219 157.578 11.9219C159.557 11.9219 161.182 12.2448 162.453 12.8906C163.724 13.526 164.693 14.4115 165.359 15.5469C166.036 16.6719 166.453 17.9635 166.609 19.4219H162.062C161.948 18.651 161.729 17.9792 161.406 17.4062C161.083 16.8333 160.62 16.3854 160.016 16.0625C159.422 15.7396 158.651 15.5781 157.703 15.5781C156.922 15.5781 156.224 15.7396 155.609 16.0625C155.005 16.375 154.495 16.8385 154.078 17.4531C153.661 18.0677 153.344 18.8281 153.125 19.7344C152.906 20.6406 152.797 21.6927 152.797 22.8906V24.3438C152.797 25.5312 152.911 26.5833 153.141 27.5C153.37 28.4062 153.708 29.1719 154.156 29.7969C154.615 30.4115 155.177 30.875 155.844 31.1875C156.51 31.5 157.286 31.6562 158.172 31.6562C158.911 31.6562 159.526 31.5938 160.016 31.4688C160.516 31.3438 160.917 31.1927 161.219 31.0156C161.531 30.8281 161.771 30.651 161.938 30.4844V26.4531H157.656V23.1094H166.625ZM174.875 11V35H170.359V11H174.875ZM177.875 26.7188V26.3906C177.875 25.151 178.052 24.0104 178.406 22.9688C178.76 21.9167 179.276 21.0052 179.953 20.2344C180.63 19.4635 181.464 18.8646 182.453 18.4375C183.443 18 184.578 17.7812 185.859 17.7812C187.141 17.7812 188.281 18 189.281 18.4375C190.281 18.8646 191.12 19.4635 191.797 20.2344C192.484 21.0052 193.005 21.9167 193.359 22.9688C193.714 24.0104 193.891 25.151 193.891 26.3906V26.7188C193.891 27.9479 193.714 29.0885 193.359 30.1406C193.005 31.1823 192.484 32.0938 191.797 32.875C191.12 33.6458 190.286 34.2448 189.297 34.6719C188.307 35.099 187.172 35.3125 185.891 35.3125C184.609 35.3125 183.469 35.099 182.469 34.6719C181.479 34.2448 180.641 33.6458 179.953 32.875C179.276 32.0938 178.76 31.1823 178.406 30.1406C178.052 29.0885 177.875 27.9479 177.875 26.7188ZM182.375 26.3906V26.7188C182.375 27.4271 182.438 28.0885 182.562 28.7031C182.688 29.3177 182.885 29.8594 183.156 30.3281C183.438 30.7865 183.802 31.1458 184.25 31.4062C184.698 31.6667 185.245 31.7969 185.891 31.7969C186.516 31.7969 187.052 31.6667 187.5 31.4062C187.948 31.1458 188.307 30.7865 188.578 30.3281C188.849 29.8594 189.047 29.3177 189.172 28.7031C189.307 28.0885 189.375 27.4271 189.375 26.7188V26.3906C189.375 25.7031 189.307 25.0573 189.172 24.4531C189.047 23.8385 188.844 23.2969 188.562 22.8281C188.292 22.349 187.932 21.974 187.484 21.7031C187.036 21.4323 186.495 21.2969 185.859 21.2969C185.224 21.2969 184.682 21.4323 184.234 21.7031C183.797 21.974 183.438 22.349 183.156 22.8281C182.885 23.2969 182.688 23.8385 182.562 24.4531C182.438 25.0573 182.375 25.7031 182.375 26.3906ZM201.484 30.625L205 18.0938H207.859L206.938 23.0156L203.422 35H201.031L201.484 30.625ZM199.703 18.0938L202.219 30.6094L202.453 35H199.641L195.359 18.0938H199.703ZM211.078 30.4062L213.531 18.0938H217.891L213.609 35H210.812L211.078 30.4062ZM208.25 18.0938L211.75 30.5312L212.234 35H209.828L206.312 23.0312L205.422 18.0938H208.25Z" fill="#CE4E61"/>
<defs>
<clipPath id="clip0_1_299">
<rect width="40" height="40" fill="white" transform="translate(0.5 4)"/>
</clipPath>
</defs>
</svg>
