<svg width="218" height="48" viewBox="0 0 218 48" fill="none" xmlns="http://www.w3.org/2000/svg">
<path d="M1.57224 29.6533V42.8749C1.57222 42.9843 1.59376 43.0926 1.63562 43.1937C1.67749 43.2948 1.73885 43.3866 1.81621 43.464C1.89357 43.5413 1.98542 43.6027 2.0865 43.6446C2.18758 43.6864 2.29591 43.708 2.40532 43.708H14.5519C14.6613 43.708 14.7696 43.6864 14.8707 43.6446C14.9717 43.6027 15.0635 43.5413 15.1409 43.464C15.2182 43.3866 15.2796 43.2948 15.3215 43.1937C15.3633 43.0927 15.3849 42.9844 15.3849 42.875V29.6533H1.57224Z" fill="#FCE8CB"/>
<path d="M15.3852 29.3604H1.57252C1.41118 29.3604 1.28024 29.4909 1.28024 29.6526V42.8742C1.28024 43.495 1.78529 43.9995 2.4056 43.9995H14.5518C15.1725 43.9995 15.6775 43.4949 15.6775 42.8743V29.6526C15.6775 29.4909 15.547 29.3604 15.3852 29.3604ZM15.093 42.8742C15.0928 43.0176 15.0358 43.155 14.9344 43.2564C14.833 43.3578 14.6955 43.4148 14.5522 43.415H2.4056C2.26225 43.4148 2.12482 43.3578 2.02346 43.2564C1.9221 43.1551 1.86507 43.0176 1.86489 42.8743V29.9449H15.093V42.8742Z" fill="#3A312A"/>
<path d="M1.57224 33.4307H15.385V39.9304H1.57224V33.4307Z" fill="white"/>
<path d="M1.57224 33.4307H15.385V39.9304H1.57224V33.4307Z" fill="white" fill-opacity="0.2"/>
<path d="M15.3852 33.1377H1.57252C1.495 33.1377 1.42066 33.1685 1.36585 33.2233C1.31104 33.2781 1.28024 33.3525 1.28024 33.43V39.9293C1.28024 40.091 1.41118 40.2216 1.57252 40.2216H15.3852C15.547 40.2216 15.6775 40.091 15.6775 39.9293V33.43C15.6775 33.2686 15.547 33.1377 15.3852 33.1377ZM15.093 39.6374H1.86479V33.7226H15.093V39.6374Z" fill="#3A312A"/>
<path d="M16.1317 26.5957H0.825983C0.76319 26.5957 0.701006 26.608 0.642983 26.632C0.58496 26.656 0.532234 26.6912 0.487814 26.7356C0.443394 26.78 0.408152 26.8327 0.384098 26.8907C0.360045 26.9487 0.347651 27.0109 0.347626 27.0737V29.2242C0.347626 29.4883 0.561961 29.7022 0.825983 29.7022H16.1317C16.1944 29.7022 16.2566 29.6899 16.3146 29.6658C16.3726 29.6418 16.4253 29.6066 16.4697 29.5622C16.514 29.5178 16.5492 29.4652 16.5733 29.4072C16.5973 29.3492 16.6096 29.287 16.6096 29.2242V27.0737C16.6096 27.0109 16.5973 26.9487 16.5733 26.8907C16.5492 26.8327 16.514 26.7801 16.4697 26.7357C16.4253 26.6913 16.3726 26.6561 16.3146 26.6321C16.2566 26.608 16.1944 26.5957 16.1317 26.5957Z" fill="#87796F"/>
<path d="M16.1319 26.3037H7.83064C7.75312 26.3037 7.67878 26.3345 7.62397 26.3893C7.56916 26.4441 7.53836 26.5185 7.53836 26.596C7.53836 26.6735 7.56916 26.7478 7.62397 26.8027C7.67878 26.8575 7.75312 26.8883 7.83064 26.8883H16.1319C16.2342 26.8883 16.3176 26.9716 16.3176 27.074V29.2245C16.3176 29.3268 16.2343 29.4102 16.1319 29.4102H0.826266C0.777041 29.4101 0.729854 29.3905 0.695047 29.3557C0.66024 29.3209 0.640651 29.2737 0.640574 29.2245V27.074C0.640574 26.9717 0.723969 26.8883 0.826266 26.8883H5.27586C5.35338 26.8883 5.42772 26.8575 5.48253 26.8027C5.53734 26.7478 5.56814 26.6735 5.56814 26.596C5.56814 26.5185 5.53734 26.4441 5.48253 26.3893C5.42772 26.3345 5.35338 26.3037 5.27586 26.3037H0.826266C0.401492 26.3037 0.0556335 26.6489 0.0556335 27.074V29.2245C0.0556335 29.6493 0.4012 29.9948 0.826266 29.9948H16.1315C16.5563 29.9948 16.9022 29.6496 16.9022 29.2245V27.074C16.9022 26.6492 16.5566 26.3037 16.1319 26.3037Z" fill="#3A312A"/>
<path d="M12.4013 4.29199H18.2742V5.87856H12.4013V4.29199Z" fill="#87796F"/>
<path d="M18.2737 4H12.4009C12.3233 4 12.249 4.03079 12.1942 4.08561C12.1394 4.14042 12.1086 4.21476 12.1086 4.29228V5.87884C12.1086 6.04057 12.2395 6.17112 12.4009 6.17112H18.2737C18.4355 6.17112 18.566 6.04057 18.566 5.87884V4.29228C18.566 4.13094 18.4355 4 18.2737 4ZM17.9815 5.58657H12.6931V4.58455H17.9815V5.58657Z" fill="#3A312A"/>
<path d="M15.59 5.87891H17.5427V11.7975H15.59V5.87891Z" fill="#87796F"/>
<path d="M17.5428 5.58691H15.5901C15.5126 5.58691 15.4382 5.61771 15.3834 5.67252C15.3286 5.72733 15.2978 5.80167 15.2978 5.87919V11.7978C15.2978 11.9595 15.4288 12.09 15.5901 12.09H17.5428C17.7045 12.09 17.8351 11.9595 17.8351 11.7978V5.87919C17.8351 5.71785 17.7045 5.58691 17.5428 5.58691ZM17.2505 11.5055H15.8824V6.17146H17.2505V11.5055Z" fill="#3A312A"/>
<path d="M20.0925 14.3545H13.1269C12.4895 14.3545 11.9726 14.8713 11.9726 15.5088V42.553C11.9726 43.1905 12.4895 43.7072 13.1269 43.7072H20.0924C20.7299 43.7072 21.2467 43.1905 21.2467 42.553V15.5088C21.2467 14.8713 20.73 14.3545 20.0925 14.3545Z" fill="white"/>
<path d="M20.0925 14.3545H13.1269C12.4895 14.3545 11.9726 14.8713 11.9726 15.5088V42.553C11.9726 43.1905 12.4895 43.7072 13.1269 43.7072H20.0924C20.7299 43.7072 21.2467 43.1905 21.2467 42.553V15.5088C21.2467 14.8713 20.73 14.3545 20.0925 14.3545Z" fill="white" fill-opacity="0.2"/>
<path d="M20.0926 14.0625H13.127C12.3293 14.0625 11.6804 14.7117 11.6804 15.5091V18.9117C11.6804 18.9893 11.7112 19.0636 11.766 19.1184C11.8208 19.1732 11.8951 19.204 11.9727 19.204C12.0502 19.204 12.1245 19.1732 12.1793 19.1184C12.2341 19.0636 12.2649 18.9893 12.2649 18.9117V15.5091C12.2649 15.0341 12.6517 14.6471 13.127 14.6471H20.0925C20.5679 14.6471 20.9545 15.0341 20.9545 15.5091V42.5533C20.9545 43.0286 20.5678 43.4152 20.0925 43.4152H13.127C12.6516 43.4152 12.2649 43.0286 12.2649 42.5533V21.554C12.2649 21.4765 12.2341 21.4021 12.1793 21.3473C12.1245 21.2925 12.0502 21.2617 11.9727 21.2617C11.8951 21.2617 11.8208 21.2925 11.766 21.3473C11.7112 21.4021 11.6804 21.4765 11.6804 21.554V42.5533C11.6804 43.3509 12.3297 43.9998 13.127 43.9998H20.0925C20.8902 43.9998 21.539 43.3505 21.539 42.5533V15.5091C21.5394 14.7117 20.8903 14.0625 20.0926 14.0625Z" fill="#3A312A"/>
<path d="M18.929 11.126H14.2914C13.7343 11.126 13.2802 11.578 13.2802 12.1374V14.3546H19.9402V12.1374C19.9402 11.578 19.4863 11.126 18.929 11.126Z" fill="#FCE8CB"/>
<path d="M18.9284 10.834H14.2907C13.5722 10.834 12.9873 11.4188 12.9873 12.1377V14.3549C12.9873 14.5167 13.1182 14.6472 13.2795 14.6472H19.9395C20.1013 14.6472 20.2318 14.5167 20.2318 14.3549V12.1377C20.2318 11.4188 19.6473 10.834 18.9284 10.834ZM19.6473 14.0627H13.5718V12.1377C13.5718 11.7412 13.8946 11.4185 14.2908 11.4185H18.9283C19.3249 11.4185 19.6473 11.7412 19.6473 12.1377V14.0627Z" fill="#3A312A"/>
<path d="M11.9727 25.4287H21.2467V31.7248H11.9727V25.4287Z" fill="#FCE8CB"/>
<path d="M21.247 25.1367H11.9727C11.8113 25.1367 11.6804 25.2673 11.6804 25.429V31.7251C11.6804 31.8026 11.7112 31.8769 11.766 31.9318C11.8208 31.9866 11.8951 32.0174 11.9727 32.0174H21.2471C21.3247 32.0174 21.399 31.9866 21.4538 31.9318C21.5086 31.8769 21.5394 31.8026 21.5394 31.7251V25.429C21.5394 25.3515 21.5086 25.2771 21.4538 25.2223C21.399 25.1675 21.3246 25.1367 21.247 25.1367ZM20.9548 31.4328H12.2649V25.7213H20.9549L20.9548 31.4328Z" fill="#3A312A"/>
<path d="M20.7187 41.0859V42.6889C20.7187 43.2514 21.1747 43.7073 21.7371 43.7073H28.4035C28.9659 43.7073 29.4219 43.2513 29.4219 42.6889V41.0859H20.7187Z" fill="#87796F"/>
<path d="M29.4212 40.7939H20.718C20.5563 40.7939 20.4258 40.9249 20.4258 41.0862V42.6892C20.4258 43.4119 21.0137 43.9998 21.7364 43.9998H28.4028C29.1255 43.9998 29.7135 43.4119 29.7135 42.6892V41.0862C29.7135 41.0087 29.6827 40.9344 29.6279 40.8796C29.5731 40.8247 29.4987 40.7939 29.4212 40.7939ZM29.1289 42.6892C29.1289 43.0896 28.8031 43.4153 28.4028 43.4153H21.7364C21.336 43.4153 21.0103 43.0896 21.0103 42.6892V41.3785H29.1293V42.6892H29.1289Z" fill="#3A312A"/>
<path d="M20.7185 36.8496H29.4217V41.0864H20.7185V36.8496Z" fill="#87796F"/>
<path d="M29.4212 36.5566H20.718C20.5563 36.5566 20.4258 36.6876 20.4258 36.8489V41.0857C20.4258 41.2475 20.5563 41.378 20.718 41.378H29.4212C29.5829 41.378 29.7135 41.2475 29.7135 41.0857V36.8489C29.7135 36.7714 29.6827 36.6971 29.6279 36.6422C29.5731 36.5874 29.4987 36.5566 29.4212 36.5566ZM29.1289 40.7935H21.0103V37.1412H29.1289V40.7935Z" fill="#3A312A"/>
<path d="M29.9102 12.7686H20.232C19.6745 12.7686 19.2323 13.2381 19.2654 13.7954L19.3221 14.7734L20.7188 36.8501H29.422L30.8103 14.7734L30.8746 13.8033C30.9138 13.244 30.4693 12.7686 29.9103 12.7686H29.9102Z" fill="white"/>
<path d="M29.9102 12.7686H20.232C19.6745 12.7686 19.2323 13.2381 19.2654 13.7954L19.3221 14.7734L20.7188 36.8501H29.422L30.8103 14.7734L30.8746 13.8033C30.9138 13.244 30.4693 12.7686 29.9103 12.7686H29.9102Z" fill="white" fill-opacity="0.2"/>
<path d="M30.8302 12.8763C30.7124 12.7501 30.57 12.6494 30.4117 12.5805C30.2534 12.5116 30.0827 12.4759 29.9101 12.4756H20.2319C19.881 12.4756 19.5557 12.6164 19.3147 12.8714C19.1971 12.9969 19.1063 13.1449 19.0476 13.3066C18.989 13.4682 18.9639 13.6401 18.9737 13.8118L19.0304 14.7914L20.4271 36.868C20.4319 36.9422 20.4647 37.0117 20.5189 37.0626C20.5731 37.1134 20.6447 37.1417 20.719 37.1417H29.4222C29.4966 37.1417 29.5682 37.1134 29.6224 37.0624C29.6766 37.0115 29.7094 36.9418 29.7141 36.8676L31.1024 14.7921L31.1667 13.8217C31.178 13.6495 31.154 13.4768 31.0962 13.3142C31.0383 13.1517 30.9478 13.0026 30.8303 12.8763H30.8302ZM30.5828 13.7832L30.5181 14.7545L29.147 36.5575H20.9925L19.6133 14.7559L19.5566 13.7775C19.5509 13.6852 19.5642 13.5928 19.5957 13.5059C19.6272 13.4191 19.6762 13.3396 19.7398 13.2725C19.8027 13.2052 19.8788 13.1517 19.9634 13.1152C20.048 13.0787 20.1393 13.0601 20.2314 13.0605H29.9096C30.0021 13.0602 30.0937 13.0791 30.1785 13.116C30.2634 13.153 30.3396 13.2072 30.4024 13.2752C30.466 13.3426 30.5149 13.4225 30.5459 13.5098C30.5769 13.5972 30.5893 13.69 30.5824 13.7824V13.7832H30.5828Z" fill="#3A312A"/>
<path d="M29.9102 12.7686H20.232C19.6745 12.7686 19.2323 13.2381 19.2654 13.7954L19.3221 14.7734H30.8103L30.8746 13.8033C30.9138 13.244 30.4693 12.7686 29.9103 12.7686H29.9102Z" fill="#87796F"/>
<path d="M30.8302 12.8763C30.7124 12.7501 30.57 12.6494 30.4117 12.5805C30.2534 12.5116 30.0827 12.4759 29.9101 12.4756H20.2319C19.881 12.4756 19.5557 12.6164 19.3147 12.8714C19.1971 12.9969 19.1063 13.1449 19.0476 13.3066C18.989 13.4682 18.9639 13.6401 18.9737 13.8118L19.03 14.7898C19.0344 14.8643 19.0671 14.9343 19.1213 14.9855C19.1756 15.0367 19.2473 15.0653 19.3219 15.0653H30.8105C30.8846 15.0653 30.9559 15.0371 31.01 14.9864C31.0641 14.9358 31.097 14.8665 31.102 14.7925L31.1663 13.822C31.1778 13.6498 31.1539 13.477 31.0961 13.3144C31.0384 13.1517 30.9479 13.0026 30.8303 12.8763H30.8302ZM30.5828 13.7832L30.5363 14.4804H19.5977L19.557 13.7775C19.546 13.5892 19.6111 13.4095 19.7401 13.2725C19.8691 13.1355 20.0438 13.0601 20.2318 13.0601H29.91C30.0983 13.0601 30.2738 13.1366 30.4028 13.2752C30.4664 13.3425 30.5152 13.4224 30.5462 13.5096C30.5772 13.5969 30.5897 13.6897 30.5828 13.7821V13.7832Z" fill="#3A312A"/>
<path d="M26.4175 21.5686C24.6219 20.8249 22.5631 21.6774 21.8195 23.4729C21.0759 25.2685 21.9283 27.3273 23.7239 28.0709C25.5194 28.8146 27.5782 27.9621 28.3219 26.1665C29.0655 24.3707 28.213 22.3122 26.4175 21.5686Z" fill="#FCE8CB"/>
<path d="M25.0698 21.0088C22.9683 21.0088 21.2588 22.7183 21.2588 24.8198C21.2588 26.9216 22.9683 28.6311 25.0697 28.6311C27.1716 28.6311 28.8811 26.9216 28.8811 24.8199C28.8811 22.7183 27.1716 21.0088 25.0698 21.0088ZM25.0698 28.0466C23.2906 28.0466 21.8433 26.5988 21.8433 24.8199C21.8433 23.0409 23.2906 21.5933 25.0697 21.5933C26.8489 21.5933 28.2966 23.0406 28.2966 24.8198C28.2966 26.5989 26.8493 28.0466 25.0698 28.0466Z" fill="#3A312A"/>
<path d="M35.1824 20.6396H29.2177C29.1885 20.6396 29.1596 20.6453 29.1326 20.6565C29.1056 20.6676 29.081 20.684 29.0603 20.7046C29.0397 20.7253 29.0233 20.7498 29.0121 20.7768C29.0009 20.8037 28.9951 20.8327 28.9951 20.8619V22.9066C28.9952 22.9656 29.0187 23.0222 29.0604 23.0639C29.1021 23.1055 29.1587 23.129 29.2177 23.129H35.1824C35.2413 23.1289 35.2978 23.1054 35.3394 23.0637C35.3811 23.0221 35.4045 22.9656 35.4046 22.9066V20.8619C35.4046 20.8029 35.3812 20.7464 35.3395 20.7047C35.2978 20.6631 35.2413 20.6396 35.1824 20.6396Z" fill="#87796F"/>
<path d="M35.1826 20.3477H29.218C29.0815 20.3477 28.9507 20.402 28.8541 20.4984C28.7576 20.5949 28.7033 20.7257 28.7031 20.8622V22.9069C28.7032 23.0434 28.7576 23.1742 28.8541 23.2707C28.9506 23.3672 29.0815 23.4214 29.218 23.4215H35.1826C35.319 23.4213 35.4498 23.367 35.5462 23.2705C35.6427 23.1741 35.6969 23.0433 35.6971 22.9069V20.8622C35.697 20.7258 35.6427 20.595 35.5463 20.4985C35.4498 20.4021 35.319 20.3478 35.1826 20.3477ZM35.1126 22.8369H29.288V20.9322H35.1126V22.8369Z" fill="#3A312A"/>
<path d="M35.9013 28.634L35.8088 28.4935C34.9751 27.2279 34.5308 25.7456 34.5309 24.2301V23.1299H29.869V24.2301C29.8691 25.7456 29.4248 27.2279 28.5911 28.4935L28.4989 28.634C27.6651 29.8996 27.2207 31.3819 27.2207 32.8974V42.3857C27.2207 43.116 27.8127 43.7078 28.5431 43.7078H35.8572C36.5875 43.7078 37.1797 43.116 37.1797 42.3857V32.8975C37.1795 31.382 36.735 29.8997 35.9013 28.634Z" fill="white"/>
<path d="M35.9013 28.634L35.8088 28.4935C34.9751 27.2279 34.5308 25.7456 34.5309 24.2301V23.1299H29.869V24.2301C29.8691 25.7456 29.4248 27.2279 28.5911 28.4935L28.4989 28.634C27.6651 29.8996 27.2207 31.3819 27.2207 32.8974V42.3857C27.2207 43.116 27.8127 43.7078 28.5431 43.7078H35.8572C36.5875 43.7078 37.1797 43.116 37.1797 42.3857V32.8975C37.1795 31.382 36.735 29.8997 35.9013 28.634Z" fill="white" fill-opacity="0.2"/>
<path d="M36.1447 28.4727L36.0525 28.3327C35.2492 27.1152 34.8215 25.6884 34.8225 24.2298V23.1292C34.8225 23.0517 34.7918 22.9773 34.7369 22.9225C34.6821 22.8677 34.6078 22.8369 34.5303 22.8369H29.8688C29.707 22.8369 29.5765 22.9678 29.5765 23.1292V24.2298C29.5776 25.6884 29.1499 27.1152 28.3465 28.3327L28.254 28.4727C27.3876 29.7855 26.9264 31.3242 26.9277 32.8971V42.3854C26.9277 43.2756 27.652 43.9998 28.5425 43.9998H35.8566C36.7467 43.9998 37.4713 43.2756 37.4713 42.3854V32.8972C37.4724 31.3242 37.0111 29.7856 36.1447 28.4727ZM36.8864 42.3851C36.8864 42.9532 36.4244 43.4152 35.8566 43.4152H28.5421C27.9742 43.4152 27.5124 42.9528 27.5124 42.3851V32.8972C27.5111 31.4385 27.9388 30.0115 28.7422 28.794L28.8344 28.654C29.7008 27.3411 30.162 25.8025 30.1607 24.2295V23.4216H34.2377V24.2295C34.2365 25.8025 34.6978 27.3411 35.5643 28.654L35.6564 28.794C36.4597 30.0116 36.8873 31.4385 36.886 32.8972V42.3852L36.8864 42.3851Z" fill="#3A312A"/>
<path d="M27.2207 33.5479H37.1794V38.8442H27.2207V33.5479Z" fill="#FCE8CB"/>
<path d="M37.1787 33.2549H27.22C27.0586 33.2549 26.9277 33.3854 26.9277 33.5472V38.8435C26.9277 38.921 26.9585 38.9953 27.0133 39.0501C27.0681 39.105 27.1425 39.1358 27.22 39.1358H37.1787C37.2562 39.1358 37.3305 39.105 37.3853 39.0501C37.4402 38.9953 37.4709 38.921 37.4709 38.8435V33.5472C37.4709 33.3854 37.34 33.2549 37.1787 33.2549ZM36.8864 38.5512H27.5123V33.8394H36.8864V38.5512Z" fill="#3A312A"/>
<path d="M7.44971 15.6006C7.25973 17.854 4.91208 18.2098 4.91208 18.2098C6.9279 18.3045 7.43022 20.9491 7.43022 20.9491C7.47368 19.0634 10.0261 18.1817 10.0261 18.1817C8.11376 18.0674 7.44971 15.6006 7.44971 15.6006Z" fill="white"/>
<path d="M7.44971 15.6006C7.25973 17.854 4.91208 18.2098 4.91208 18.2098C6.9279 18.3045 7.43022 20.9491 7.43022 20.9491C7.47368 19.0634 10.0261 18.1817 10.0261 18.1817C8.11376 18.0674 7.44971 15.6006 7.44971 15.6006Z" fill="white" fill-opacity="0.2"/>
<path d="M10.0432 17.8897C8.36678 17.7897 7.73771 15.5469 7.73157 15.5242C7.69465 15.3875 7.56644 15.2985 7.42293 15.3095C7.35456 15.3157 7.29057 15.3458 7.2422 15.3946C7.19383 15.4433 7.16416 15.5075 7.15842 15.5759C6.99066 17.5663 4.9535 17.9069 4.86786 17.9206C4.79628 17.9317 4.73136 17.9689 4.68566 18.0251C4.63996 18.0813 4.61673 18.1524 4.62048 18.2248C4.62423 18.2971 4.65468 18.3655 4.70594 18.4166C4.7572 18.4678 4.82563 18.4981 4.89797 18.5017C6.65688 18.5843 7.13826 20.9796 7.14283 21.0039C7.15652 21.0748 7.19594 21.1381 7.25349 21.1816C7.31104 21.2252 7.38267 21.2459 7.45459 21.2399C7.52638 21.2338 7.5934 21.2014 7.64277 21.149C7.69213 21.0965 7.72036 21.0276 7.72203 20.9556C7.76012 19.2978 10.0975 18.4659 10.1216 18.4579C10.1854 18.4356 10.2395 18.3919 10.2748 18.3343C10.3101 18.2767 10.3244 18.2086 10.3153 18.1417C10.306 18.0747 10.2738 18.0131 10.2242 17.9672C10.1746 17.9212 10.1106 17.8939 10.0432 17.8897ZM7.39974 19.9056C7.13523 19.2959 6.67704 18.5599 5.92122 18.1763C6.49242 17.9027 7.17021 17.4137 7.51958 16.5642C7.82179 17.1628 8.33785 17.905 9.14307 18.2638C8.55745 18.5832 7.7947 19.122 7.39974 19.9056Z" fill="white"/>
<path d="M10.0432 17.8897C8.36678 17.7897 7.73771 15.5469 7.73157 15.5242C7.69465 15.3875 7.56644 15.2985 7.42293 15.3095C7.35456 15.3157 7.29057 15.3458 7.2422 15.3946C7.19383 15.4433 7.16416 15.5075 7.15842 15.5759C6.99066 17.5663 4.9535 17.9069 4.86786 17.9206C4.79628 17.9317 4.73136 17.9689 4.68566 18.0251C4.63996 18.0813 4.61673 18.1524 4.62048 18.2248C4.62423 18.2971 4.65468 18.3655 4.70594 18.4166C4.7572 18.4678 4.82563 18.4981 4.89797 18.5017C6.65688 18.5843 7.13826 20.9796 7.14283 21.0039C7.15652 21.0748 7.19594 21.1381 7.25349 21.1816C7.31104 21.2252 7.38267 21.2459 7.45459 21.2399C7.52638 21.2338 7.5934 21.2014 7.64277 21.149C7.69213 21.0965 7.72036 21.0276 7.72203 20.9556C7.76012 19.2978 10.0975 18.4659 10.1216 18.4579C10.1854 18.4356 10.2395 18.3919 10.2748 18.3343C10.3101 18.2767 10.3244 18.2086 10.3153 18.1417C10.306 18.0747 10.2738 18.0131 10.2242 17.9672C10.1746 17.9212 10.1106 17.8939 10.0432 17.8897ZM7.39974 19.9056C7.13523 19.2959 6.67704 18.5599 5.92122 18.1763C6.49242 17.9027 7.17021 17.4137 7.51958 16.5642C7.82179 17.1628 8.33785 17.905 9.14307 18.2638C8.55745 18.5832 7.7947 19.122 7.39974 19.9056Z" fill="white" fill-opacity="0.2"/>
<path d="M3.22188 18.9092C3.08753 20.5027 1.42673 20.7542 1.42673 20.7542C2.85274 20.8215 3.20824 22.692 3.20824 22.692C3.23864 21.3585 5.04402 20.7347 5.04402 20.7347C3.69147 20.6537 3.22188 18.9092 3.22188 18.9092Z" fill="white"/>
<path d="M3.22188 18.9092C3.08753 20.5027 1.42673 20.7542 1.42673 20.7542C2.85274 20.8215 3.20824 22.692 3.20824 22.692C3.23864 21.3585 5.04402 20.7347 5.04402 20.7347C3.69147 20.6537 3.22188 18.9092 3.22188 18.9092Z" fill="white" fill-opacity="0.2"/>
<path d="M5.06107 20.4436C3.93767 20.3763 3.50802 18.8487 3.50383 18.8331C3.48602 18.7667 3.44531 18.7088 3.38891 18.6695C3.3325 18.6302 3.26403 18.6121 3.19558 18.6184C3.12709 18.6246 3.06298 18.6548 3.01451 18.7035C2.96605 18.7523 2.93633 18.8166 2.93058 18.8852C2.81757 20.224 1.44076 20.4569 1.38289 20.4661C1.31123 20.477 1.24618 20.5141 1.20039 20.5703C1.1546 20.6265 1.13134 20.6977 1.13514 20.77C1.13879 20.8426 1.1693 20.9111 1.22074 20.9624C1.27218 21.0136 1.34086 21.0439 1.41338 21.0472C2.5893 21.1024 2.91811 22.7316 2.92113 22.7476C2.93393 22.8143 2.96958 22.8746 3.02195 22.9179C3.07433 22.9612 3.14017 22.985 3.20815 22.985C3.21614 22.985 3.22412 22.985 3.2325 22.9842C3.3044 22.9782 3.37152 22.9458 3.42098 22.8933C3.47043 22.8407 3.49873 22.7718 3.50042 22.6996C3.52585 21.5872 5.12391 21.0171 5.1395 21.0118C5.20355 20.9897 5.25796 20.9461 5.29343 20.8884C5.3289 20.8307 5.34322 20.7625 5.33396 20.6954C5.3247 20.6283 5.29243 20.5665 5.24265 20.5206C5.19288 20.4747 5.1287 20.4474 5.06107 20.4436ZM3.19363 21.7676C3.01359 21.4003 2.73768 20.9985 2.32752 20.739C2.68897 20.5361 3.04749 20.2263 3.27664 19.7811C3.4825 20.146 3.79338 20.5513 4.2391 20.7987C3.87863 21.013 3.46184 21.3326 3.19363 21.7676Z" fill="white"/>
<path d="M5.06107 20.4436C3.93767 20.3763 3.50802 18.8487 3.50383 18.8331C3.48602 18.7667 3.44531 18.7088 3.38891 18.6695C3.3325 18.6302 3.26403 18.6121 3.19558 18.6184C3.12709 18.6246 3.06298 18.6548 3.01451 18.7035C2.96605 18.7523 2.93633 18.8166 2.93058 18.8852C2.81757 20.224 1.44076 20.4569 1.38289 20.4661C1.31123 20.477 1.24618 20.5141 1.20039 20.5703C1.1546 20.6265 1.13134 20.6977 1.13514 20.77C1.13879 20.8426 1.1693 20.9111 1.22074 20.9624C1.27218 21.0136 1.34086 21.0439 1.41338 21.0472C2.5893 21.1024 2.91811 22.7316 2.92113 22.7476C2.93393 22.8143 2.96958 22.8746 3.02195 22.9179C3.07433 22.9612 3.14017 22.985 3.20815 22.985C3.21614 22.985 3.22412 22.985 3.2325 22.9842C3.3044 22.9782 3.37152 22.9458 3.42098 22.8933C3.47043 22.8407 3.49873 22.7718 3.50042 22.6996C3.52585 21.5872 5.12391 21.0171 5.1395 21.0118C5.20355 20.9897 5.25796 20.9461 5.29343 20.8884C5.3289 20.8307 5.34322 20.7625 5.33396 20.6954C5.3247 20.6283 5.29243 20.5665 5.24265 20.5206C5.19288 20.4747 5.1287 20.4474 5.06107 20.4436ZM3.19363 21.7676C3.01359 21.4003 2.73768 20.9985 2.32752 20.739C2.68897 20.5361 3.04749 20.2263 3.27664 19.7811C3.4825 20.146 3.79338 20.5513 4.2391 20.7987C3.87863 21.013 3.46184 21.3326 3.19363 21.7676Z" fill="white" fill-opacity="0.2"/>
<path d="M3.22178 13.7148C3.08743 15.3082 1.42673 15.5602 1.42673 15.5602C2.85274 15.6272 3.20824 17.4977 3.20824 17.4977C3.23864 16.1641 5.04402 15.5404 5.04402 15.5404C3.69147 15.4593 3.22178 13.7148 3.22178 13.7148Z" fill="white"/>
<path d="M3.22178 13.7148C3.08743 15.3082 1.42673 15.5602 1.42673 15.5602C2.85274 15.6272 3.20824 17.4977 3.20824 17.4977C3.23864 16.1641 5.04402 15.5404 5.04402 15.5404C3.69147 15.4593 3.22178 13.7148 3.22178 13.7148Z" fill="white" fill-opacity="0.2"/>
<path d="M5.06151 15.2488C3.94346 15.1823 3.51225 13.6684 3.50427 13.6391C3.48641 13.5727 3.44571 13.5148 3.38932 13.4754C3.33294 13.4361 3.26449 13.4179 3.19601 13.424C3.1275 13.4301 3.06332 13.4601 3.01479 13.5089C2.96626 13.5576 2.93649 13.6219 2.93072 13.6905C2.8181 15.0293 1.44109 15.2622 1.38332 15.2713C1.31138 15.2819 1.24599 15.319 1.19991 15.3753C1.15383 15.4315 1.13039 15.5029 1.13415 15.5756C1.13791 15.6482 1.16861 15.7168 1.22026 15.768C1.2719 15.8192 1.34077 15.8493 1.41343 15.8524C2.58935 15.9077 2.91816 17.5369 2.92118 17.5528C2.93395 17.6196 2.96959 17.6798 3.02197 17.7232C3.07435 17.7665 3.1402 17.7903 3.20819 17.7903C3.21618 17.7903 3.22417 17.7903 3.23255 17.7895C3.30446 17.7835 3.3716 17.7511 3.42105 17.6985C3.47051 17.646 3.4988 17.577 3.50047 17.5049C3.52589 16.3925 5.12396 15.8223 5.13954 15.8171C5.20345 15.7949 5.2577 15.7513 5.29308 15.6936C5.32845 15.636 5.34278 15.5678 5.33362 15.5008C5.32453 15.4338 5.29241 15.372 5.24277 15.326C5.19313 15.2801 5.12905 15.2527 5.06151 15.2488ZM3.19406 16.5728C3.01402 16.2056 2.73811 15.8037 2.32796 15.5442C2.6894 15.3413 3.04793 15.0315 3.27707 14.5859C3.48293 14.9513 3.79381 15.3565 4.23953 15.604C3.87906 15.8186 3.46227 16.1378 3.19406 16.5728Z" fill="white"/>
<path d="M5.06151 15.2488C3.94346 15.1823 3.51225 13.6684 3.50427 13.6391C3.48641 13.5727 3.44571 13.5148 3.38932 13.4754C3.33294 13.4361 3.26449 13.4179 3.19601 13.424C3.1275 13.4301 3.06332 13.4601 3.01479 13.5089C2.96626 13.5576 2.93649 13.6219 2.93072 13.6905C2.8181 15.0293 1.44109 15.2622 1.38332 15.2713C1.31138 15.2819 1.24599 15.319 1.19991 15.3753C1.15383 15.4315 1.13039 15.5029 1.13415 15.5756C1.13791 15.6482 1.16861 15.7168 1.22026 15.768C1.2719 15.8192 1.34077 15.8493 1.41343 15.8524C2.58935 15.9077 2.91816 17.5369 2.92118 17.5528C2.93395 17.6196 2.96959 17.6798 3.02197 17.7232C3.07435 17.7665 3.1402 17.7903 3.20819 17.7903C3.21618 17.7903 3.22417 17.7903 3.23255 17.7895C3.30446 17.7835 3.3716 17.7511 3.42105 17.6985C3.47051 17.646 3.4988 17.577 3.50047 17.5049C3.52589 16.3925 5.12396 15.8223 5.13954 15.8171C5.20345 15.7949 5.2577 15.7513 5.29308 15.6936C5.32845 15.636 5.34278 15.5678 5.33362 15.5008C5.32453 15.4338 5.29241 15.372 5.24277 15.326C5.19313 15.2801 5.12905 15.2527 5.06151 15.2488ZM3.19406 16.5728C3.01402 16.2056 2.73811 15.8037 2.32796 15.5442C2.6894 15.3413 3.04793 15.0315 3.27707 14.5859C3.48293 14.9513 3.79381 15.3565 4.23953 15.604C3.87906 15.8186 3.46227 16.1378 3.19406 16.5728Z" fill="white" fill-opacity="0.2"/>
<path d="M11.6812 42.5535V40.2209H9.80075V42.5535C9.80075 42.8769 9.90987 43.1749 10.0891 43.4147H11.9677C11.7814 43.1663 11.6809 42.864 11.6812 42.5535ZM9.80075 29.9951H11.6811V33.1382H9.80075V29.9951Z" fill="#CCAE8B"/>
<path d="M9.80075 33.7227H11.6811V39.6364H9.80075V33.7227Z" fill="#CE4E61"/>
<path d="M9.80075 26.8877H11.6811V29.4108H9.80075V26.8877Z" fill="#6B5B51"/>
<path d="M19.0311 14.7916V14.7897L19.0214 14.6475H17.3398L17.3475 14.7897V14.7916L18.002 25.1362H19.6857L19.0311 14.7916ZM20.4263 42.6902V36.8603L20.1204 32.0182H18.4367L18.7426 36.8603V42.6902C18.7426 42.8987 18.7952 43.0974 18.8831 43.2728C18.7427 43.3657 18.578 43.4152 18.4096 43.4151H20.0929C20.2684 43.4151 20.4301 43.3626 20.5645 43.2729C20.4739 43.092 20.4266 42.8925 20.4263 42.6902Z" fill="#CE4E61"/>
<path d="M18.9298 11.418H17.2461C17.6416 11.418 17.9651 11.7395 17.9651 12.1372V12.6201C17.8409 12.685 17.7283 12.77 17.632 12.8716C17.514 12.9966 17.4228 13.1444 17.3642 13.306C17.3055 13.4675 17.2806 13.6394 17.291 13.8109L17.3043 14.0621H18.9879L18.9743 13.8109C18.9641 13.6394 18.9891 13.4676 19.0477 13.3061C19.1064 13.1446 19.1974 12.9968 19.3153 12.8717C19.4109 12.7691 19.5237 12.6839 19.6487 12.6201V12.1372C19.6487 11.7395 19.3253 11.418 18.9298 11.418ZM19.7224 25.72H18.0392L18.3997 31.433H20.0832L19.7224 25.72Z" fill="#CCAE8B"/>
<path d="M26.9282 42.386V41.3782H25.4746V42.386C25.4746 42.7757 25.6127 43.1361 25.8467 43.4146H27.3002C27.0597 43.1258 26.9281 42.7618 26.9282 42.386ZM25.4747 37.1426H26.9281V40.7937H25.4747V37.1426Z" fill="#6B5B51"/>
<path d="M29.2176 20.3488H30.1667L30.4997 15.0664H29.0439L28.7129 20.3488H27.7641C27.6965 20.3487 27.6296 20.362 27.5671 20.3878C27.5047 20.4136 27.448 20.4515 27.4002 20.4993C27.3524 20.5471 27.3145 20.6038 27.2887 20.6663C27.2629 20.7287 27.2496 20.7956 27.2497 20.8632V21.6952C28.2356 22.3852 28.8825 23.5287 28.8825 24.8208C28.8825 26.1961 28.1496 27.4026 27.0548 28.0746C27.0035 28.1626 26.9495 28.249 26.893 28.3337L26.7995 28.4724C25.934 29.7857 25.4733 31.3243 25.4746 32.8971V36.5586H26.928V32.8971C26.9272 31.324 27.3887 29.7854 28.255 28.4723L28.3468 28.3338C29.1497 27.116 29.5772 25.689 29.576 24.2302V23.4219H29.2175C28.9351 23.4219 28.7031 23.1916 28.7031 22.9073V20.8633C28.7033 20.7269 28.7576 20.5962 28.854 20.4998C28.9504 20.4033 29.0812 20.3491 29.2176 20.3488Z" fill="#CE4E61"/>
<path d="M30.4016 13.2759C30.3388 13.2078 30.2626 13.1536 30.1777 13.1167C30.0928 13.0798 30.0012 13.061 29.9086 13.0615H28.455C28.6441 13.0615 28.8195 13.1373 28.9482 13.2759C29.0116 13.3432 29.0603 13.4231 29.0912 13.5103C29.122 13.5975 29.1344 13.6902 29.1275 13.7825V13.7843L29.0806 14.4819H30.5359L30.5826 13.7843V13.7824C30.5897 13.69 30.5773 13.5971 30.5461 13.5098C30.5149 13.4225 30.4657 13.3428 30.4016 13.2759ZM33.4959 20.9333H35.111V22.8373H33.4959V20.9333Z" fill="#6B5B51"/>
<path d="M35.271 39.1362V42.3866C35.271 42.9533 34.8094 43.4153 34.2423 43.4153H35.8575C36.4245 43.4153 36.8861 42.9533 36.8861 42.3866V39.1362H35.271ZM35.6568 28.7935L35.5653 28.6554C34.6985 27.3424 34.237 25.8035 34.2381 24.2302V23.4219H32.623V24.2302C32.623 25.8065 33.0809 27.3363 33.95 28.6554L34.0414 28.7935C34.8446 30.0113 35.2722 31.4383 35.271 32.8971V33.2557H36.8861V32.8971C36.8861 31.4358 36.4614 30.0155 35.6569 28.7936L35.6568 28.7935Z" fill="#CE4E61"/>
<path d="M35.2714 33.8398H36.8865V38.5513H35.2714V33.8398Z" fill="#CCAE8B"/>
<path d="M58.2344 30.25L63.5938 12.25H68.8125L60.8906 35H57.4531L58.2344 30.25ZM53.2969 12.25L58.6406 30.25L59.4531 35H55.9844L48.1094 12.25H53.2969ZM77.75 35.3125C76.4375 35.3125 75.2604 35.1042 74.2188 34.6875C73.1771 34.2604 72.2917 33.6719 71.5625 32.9219C70.8438 32.1719 70.2917 31.3021 69.9062 30.3125C69.5208 29.3125 69.3281 28.25 69.3281 27.125V26.5C69.3281 25.2188 69.5104 24.0469 69.875 22.9844C70.2396 21.9219 70.7604 21 71.4375 20.2188C72.125 19.4375 72.9583 18.8385 73.9375 18.4219C74.9167 17.9948 76.0208 17.7812 77.25 17.7812C78.4479 17.7812 79.5104 17.9792 80.4375 18.375C81.3646 18.7708 82.1406 19.3333 82.7656 20.0625C83.401 20.7917 83.8802 21.6667 84.2031 22.6875C84.526 23.6979 84.6875 24.8229 84.6875 26.0625V27.9375H71.25V24.9375H80.2656V24.5938C80.2656 23.9688 80.151 23.4115 79.9219 22.9219C79.7031 22.4219 79.3698 22.026 78.9219 21.7344C78.474 21.4427 77.901 21.2969 77.2031 21.2969C76.6094 21.2969 76.099 21.4271 75.6719 21.6875C75.2448 21.9479 74.8958 22.3125 74.625 22.7812C74.3646 23.25 74.1667 23.8021 74.0312 24.4375C73.9062 25.0625 73.8438 25.75 73.8438 26.5V27.125C73.8438 27.8021 73.9375 28.4271 74.125 29C74.3229 29.5729 74.599 30.0677 74.9531 30.4844C75.3177 30.901 75.7552 31.224 76.2656 31.4531C76.7865 31.6823 77.375 31.7969 78.0312 31.7969C78.8438 31.7969 79.599 31.6406 80.2969 31.3281C81.0052 31.0052 81.6146 30.5208 82.125 29.875L84.3125 32.25C83.9583 32.7604 83.474 33.25 82.8594 33.7188C82.2552 34.1875 81.526 34.5729 80.6719 34.875C79.8177 35.1667 78.8438 35.3125 77.75 35.3125ZM92 11V35H87.4844V11H92ZM101.469 31.7188L105.219 18.0938H109.922L104.219 35H101.375L101.469 31.7188ZM98.8906 18.0938L102.656 31.7344L102.734 35H99.875L94.1719 18.0938H98.8906ZM119.5 35.3125C118.188 35.3125 117.01 35.1042 115.969 34.6875C114.927 34.2604 114.042 33.6719 113.312 32.9219C112.594 32.1719 112.042 31.3021 111.656 30.3125C111.271 29.3125 111.078 28.25 111.078 27.125V26.5C111.078 25.2188 111.26 24.0469 111.625 22.9844C111.99 21.9219 112.51 21 113.188 20.2188C113.875 19.4375 114.708 18.8385 115.688 18.4219C116.667 17.9948 117.771 17.7812 119 17.7812C120.198 17.7812 121.26 17.9792 122.188 18.375C123.115 18.7708 123.891 19.3333 124.516 20.0625C125.151 20.7917 125.63 21.6667 125.953 22.6875C126.276 23.6979 126.438 24.8229 126.438 26.0625V27.9375H113V24.9375H122.016V24.5938C122.016 23.9688 121.901 23.4115 121.672 22.9219C121.453 22.4219 121.12 22.026 120.672 21.7344C120.224 21.4427 119.651 21.2969 118.953 21.2969C118.359 21.2969 117.849 21.4271 117.422 21.6875C116.995 21.9479 116.646 22.3125 116.375 22.7812C116.115 23.25 115.917 23.8021 115.781 24.4375C115.656 25.0625 115.594 25.75 115.594 26.5V27.125C115.594 27.8021 115.688 28.4271 115.875 29C116.073 29.5729 116.349 30.0677 116.703 30.4844C117.068 30.901 117.505 31.224 118.016 31.4531C118.536 31.6823 119.125 31.7969 119.781 31.7969C120.594 31.7969 121.349 31.6406 122.047 31.3281C122.755 31.0052 123.365 30.5208 123.875 29.875L126.062 32.25C125.708 32.7604 125.224 33.25 124.609 33.7188C124.005 34.1875 123.276 34.5729 122.422 34.875C121.568 35.1667 120.594 35.3125 119.5 35.3125ZM137.281 18.0938V21.2812H127.438V18.0938H137.281ZM129.875 13.9219H134.375V29.9062C134.375 30.3958 134.438 30.7708 134.562 31.0312C134.698 31.2917 134.896 31.474 135.156 31.5781C135.417 31.6719 135.745 31.7188 136.141 31.7188C136.422 31.7188 136.672 31.7083 136.891 31.6875C137.12 31.6562 137.312 31.625 137.469 31.5938L137.484 34.9062C137.099 35.0312 136.682 35.1302 136.234 35.2031C135.786 35.276 135.292 35.3125 134.75 35.3125C133.76 35.3125 132.896 35.151 132.156 34.8281C131.427 34.4948 130.865 33.9635 130.469 33.2344C130.073 32.5052 129.875 31.5469 129.875 30.3594V13.9219ZM166.125 23.1094V32.125C165.771 32.5521 165.224 33.0156 164.484 33.5156C163.745 34.0052 162.792 34.4271 161.625 34.7812C160.458 35.1354 159.047 35.3125 157.391 35.3125C155.922 35.3125 154.583 35.0729 153.375 34.5938C152.167 34.1042 151.125 33.3906 150.25 32.4531C149.385 31.5156 148.719 30.3698 148.25 29.0156C147.781 27.651 147.547 26.0938 147.547 24.3438V22.9219C147.547 21.1719 147.771 19.6146 148.219 18.25C148.677 16.8854 149.328 15.7344 150.172 14.7969C151.016 13.8594 152.021 13.1458 153.188 12.6562C154.354 12.1667 155.651 11.9219 157.078 11.9219C159.057 11.9219 160.682 12.2448 161.953 12.8906C163.224 13.526 164.193 14.4115 164.859 15.5469C165.536 16.6719 165.953 17.9635 166.109 19.4219H161.562C161.448 18.651 161.229 17.9792 160.906 17.4062C160.583 16.8333 160.12 16.3854 159.516 16.0625C158.922 15.7396 158.151 15.5781 157.203 15.5781C156.422 15.5781 155.724 15.7396 155.109 16.0625C154.505 16.375 153.995 16.8385 153.578 17.4531C153.161 18.0677 152.844 18.8281 152.625 19.7344C152.406 20.6406 152.297 21.6927 152.297 22.8906V24.3438C152.297 25.5312 152.411 26.5833 152.641 27.5C152.87 28.4062 153.208 29.1719 153.656 29.7969C154.115 30.4115 154.677 30.875 155.344 31.1875C156.01 31.5 156.786 31.6562 157.672 31.6562C158.411 31.6562 159.026 31.5938 159.516 31.4688C160.016 31.3438 160.417 31.1927 160.719 31.0156C161.031 30.8281 161.271 30.651 161.438 30.4844V26.4531H157.156V23.1094H166.125ZM174.375 11V35H169.859V11H174.375ZM177.375 26.7188V26.3906C177.375 25.151 177.552 24.0104 177.906 22.9688C178.26 21.9167 178.776 21.0052 179.453 20.2344C180.13 19.4635 180.964 18.8646 181.953 18.4375C182.943 18 184.078 17.7812 185.359 17.7812C186.641 17.7812 187.781 18 188.781 18.4375C189.781 18.8646 190.62 19.4635 191.297 20.2344C191.984 21.0052 192.505 21.9167 192.859 22.9688C193.214 24.0104 193.391 25.151 193.391 26.3906V26.7188C193.391 27.9479 193.214 29.0885 192.859 30.1406C192.505 31.1823 191.984 32.0938 191.297 32.875C190.62 33.6458 189.786 34.2448 188.797 34.6719C187.807 35.099 186.672 35.3125 185.391 35.3125C184.109 35.3125 182.969 35.099 181.969 34.6719C180.979 34.2448 180.141 33.6458 179.453 32.875C178.776 32.0938 178.26 31.1823 177.906 30.1406C177.552 29.0885 177.375 27.9479 177.375 26.7188ZM181.875 26.3906V26.7188C181.875 27.4271 181.938 28.0885 182.062 28.7031C182.188 29.3177 182.385 29.8594 182.656 30.3281C182.938 30.7865 183.302 31.1458 183.75 31.4062C184.198 31.6667 184.745 31.7969 185.391 31.7969C186.016 31.7969 186.552 31.6667 187 31.4062C187.448 31.1458 187.807 30.7865 188.078 30.3281C188.349 29.8594 188.547 29.3177 188.672 28.7031C188.807 28.0885 188.875 27.4271 188.875 26.7188V26.3906C188.875 25.7031 188.807 25.0573 188.672 24.4531C188.547 23.8385 188.344 23.2969 188.062 22.8281C187.792 22.349 187.432 21.974 186.984 21.7031C186.536 21.4323 185.995 21.2969 185.359 21.2969C184.724 21.2969 184.182 21.4323 183.734 21.7031C183.297 21.974 182.938 22.349 182.656 22.8281C182.385 23.2969 182.188 23.8385 182.062 24.4531C181.938 25.0573 181.875 25.7031 181.875 26.3906ZM200.984 30.625L204.5 18.0938H207.359L206.438 23.0156L202.922 35H200.531L200.984 30.625ZM199.203 18.0938L201.719 30.6094L201.953 35H199.141L194.859 18.0938H199.203ZM210.578 30.4062L213.031 18.0938H217.391L213.109 35H210.312L210.578 30.4062ZM207.75 18.0938L211.25 30.5312L211.734 35H209.328L205.812 23.0312L204.922 18.0938H207.75Z" fill="white"/>
<path d="M58.2344 30.25L63.5938 12.25H68.8125L60.8906 35H57.4531L58.2344 30.25ZM53.2969 12.25L58.6406 30.25L59.4531 35H55.9844L48.1094 12.25H53.2969ZM77.75 35.3125C76.4375 35.3125 75.2604 35.1042 74.2188 34.6875C73.1771 34.2604 72.2917 33.6719 71.5625 32.9219C70.8438 32.1719 70.2917 31.3021 69.9062 30.3125C69.5208 29.3125 69.3281 28.25 69.3281 27.125V26.5C69.3281 25.2188 69.5104 24.0469 69.875 22.9844C70.2396 21.9219 70.7604 21 71.4375 20.2188C72.125 19.4375 72.9583 18.8385 73.9375 18.4219C74.9167 17.9948 76.0208 17.7812 77.25 17.7812C78.4479 17.7812 79.5104 17.9792 80.4375 18.375C81.3646 18.7708 82.1406 19.3333 82.7656 20.0625C83.401 20.7917 83.8802 21.6667 84.2031 22.6875C84.526 23.6979 84.6875 24.8229 84.6875 26.0625V27.9375H71.25V24.9375H80.2656V24.5938C80.2656 23.9688 80.151 23.4115 79.9219 22.9219C79.7031 22.4219 79.3698 22.026 78.9219 21.7344C78.474 21.4427 77.901 21.2969 77.2031 21.2969C76.6094 21.2969 76.099 21.4271 75.6719 21.6875C75.2448 21.9479 74.8958 22.3125 74.625 22.7812C74.3646 23.25 74.1667 23.8021 74.0312 24.4375C73.9062 25.0625 73.8438 25.75 73.8438 26.5V27.125C73.8438 27.8021 73.9375 28.4271 74.125 29C74.3229 29.5729 74.599 30.0677 74.9531 30.4844C75.3177 30.901 75.7552 31.224 76.2656 31.4531C76.7865 31.6823 77.375 31.7969 78.0312 31.7969C78.8438 31.7969 79.599 31.6406 80.2969 31.3281C81.0052 31.0052 81.6146 30.5208 82.125 29.875L84.3125 32.25C83.9583 32.7604 83.474 33.25 82.8594 33.7188C82.2552 34.1875 81.526 34.5729 80.6719 34.875C79.8177 35.1667 78.8438 35.3125 77.75 35.3125ZM92 11V35H87.4844V11H92ZM101.469 31.7188L105.219 18.0938H109.922L104.219 35H101.375L101.469 31.7188ZM98.8906 18.0938L102.656 31.7344L102.734 35H99.875L94.1719 18.0938H98.8906ZM119.5 35.3125C118.188 35.3125 117.01 35.1042 115.969 34.6875C114.927 34.2604 114.042 33.6719 113.312 32.9219C112.594 32.1719 112.042 31.3021 111.656 30.3125C111.271 29.3125 111.078 28.25 111.078 27.125V26.5C111.078 25.2188 111.26 24.0469 111.625 22.9844C111.99 21.9219 112.51 21 113.188 20.2188C113.875 19.4375 114.708 18.8385 115.688 18.4219C116.667 17.9948 117.771 17.7812 119 17.7812C120.198 17.7812 121.26 17.9792 122.188 18.375C123.115 18.7708 123.891 19.3333 124.516 20.0625C125.151 20.7917 125.63 21.6667 125.953 22.6875C126.276 23.6979 126.438 24.8229 126.438 26.0625V27.9375H113V24.9375H122.016V24.5938C122.016 23.9688 121.901 23.4115 121.672 22.9219C121.453 22.4219 121.12 22.026 120.672 21.7344C120.224 21.4427 119.651 21.2969 118.953 21.2969C118.359 21.2969 117.849 21.4271 117.422 21.6875C116.995 21.9479 116.646 22.3125 116.375 22.7812C116.115 23.25 115.917 23.8021 115.781 24.4375C115.656 25.0625 115.594 25.75 115.594 26.5V27.125C115.594 27.8021 115.688 28.4271 115.875 29C116.073 29.5729 116.349 30.0677 116.703 30.4844C117.068 30.901 117.505 31.224 118.016 31.4531C118.536 31.6823 119.125 31.7969 119.781 31.7969C120.594 31.7969 121.349 31.6406 122.047 31.3281C122.755 31.0052 123.365 30.5208 123.875 29.875L126.062 32.25C125.708 32.7604 125.224 33.25 124.609 33.7188C124.005 34.1875 123.276 34.5729 122.422 34.875C121.568 35.1667 120.594 35.3125 119.5 35.3125ZM137.281 18.0938V21.2812H127.438V18.0938H137.281ZM129.875 13.9219H134.375V29.9062C134.375 30.3958 134.438 30.7708 134.562 31.0312C134.698 31.2917 134.896 31.474 135.156 31.5781C135.417 31.6719 135.745 31.7188 136.141 31.7188C136.422 31.7188 136.672 31.7083 136.891 31.6875C137.12 31.6562 137.312 31.625 137.469 31.5938L137.484 34.9062C137.099 35.0312 136.682 35.1302 136.234 35.2031C135.786 35.276 135.292 35.3125 134.75 35.3125C133.76 35.3125 132.896 35.151 132.156 34.8281C131.427 34.4948 130.865 33.9635 130.469 33.2344C130.073 32.5052 129.875 31.5469 129.875 30.3594V13.9219ZM166.125 23.1094V32.125C165.771 32.5521 165.224 33.0156 164.484 33.5156C163.745 34.0052 162.792 34.4271 161.625 34.7812C160.458 35.1354 159.047 35.3125 157.391 35.3125C155.922 35.3125 154.583 35.0729 153.375 34.5938C152.167 34.1042 151.125 33.3906 150.25 32.4531C149.385 31.5156 148.719 30.3698 148.25 29.0156C147.781 27.651 147.547 26.0938 147.547 24.3438V22.9219C147.547 21.1719 147.771 19.6146 148.219 18.25C148.677 16.8854 149.328 15.7344 150.172 14.7969C151.016 13.8594 152.021 13.1458 153.188 12.6562C154.354 12.1667 155.651 11.9219 157.078 11.9219C159.057 11.9219 160.682 12.2448 161.953 12.8906C163.224 13.526 164.193 14.4115 164.859 15.5469C165.536 16.6719 165.953 17.9635 166.109 19.4219H161.562C161.448 18.651 161.229 17.9792 160.906 17.4062C160.583 16.8333 160.12 16.3854 159.516 16.0625C158.922 15.7396 158.151 15.5781 157.203 15.5781C156.422 15.5781 155.724 15.7396 155.109 16.0625C154.505 16.375 153.995 16.8385 153.578 17.4531C153.161 18.0677 152.844 18.8281 152.625 19.7344C152.406 20.6406 152.297 21.6927 152.297 22.8906V24.3438C152.297 25.5312 152.411 26.5833 152.641 27.5C152.87 28.4062 153.208 29.1719 153.656 29.7969C154.115 30.4115 154.677 30.875 155.344 31.1875C156.01 31.5 156.786 31.6562 157.672 31.6562C158.411 31.6562 159.026 31.5938 159.516 31.4688C160.016 31.3438 160.417 31.1927 160.719 31.0156C161.031 30.8281 161.271 30.651 161.438 30.4844V26.4531H157.156V23.1094H166.125ZM174.375 11V35H169.859V11H174.375ZM177.375 26.7188V26.3906C177.375 25.151 177.552 24.0104 177.906 22.9688C178.26 21.9167 178.776 21.0052 179.453 20.2344C180.13 19.4635 180.964 18.8646 181.953 18.4375C182.943 18 184.078 17.7812 185.359 17.7812C186.641 17.7812 187.781 18 188.781 18.4375C189.781 18.8646 190.62 19.4635 191.297 20.2344C191.984 21.0052 192.505 21.9167 192.859 22.9688C193.214 24.0104 193.391 25.151 193.391 26.3906V26.7188C193.391 27.9479 193.214 29.0885 192.859 30.1406C192.505 31.1823 191.984 32.0938 191.297 32.875C190.62 33.6458 189.786 34.2448 188.797 34.6719C187.807 35.099 186.672 35.3125 185.391 35.3125C184.109 35.3125 182.969 35.099 181.969 34.6719C180.979 34.2448 180.141 33.6458 179.453 32.875C178.776 32.0938 178.26 31.1823 177.906 30.1406C177.552 29.0885 177.375 27.9479 177.375 26.7188ZM181.875 26.3906V26.7188C181.875 27.4271 181.938 28.0885 182.062 28.7031C182.188 29.3177 182.385 29.8594 182.656 30.3281C182.938 30.7865 183.302 31.1458 183.75 31.4062C184.198 31.6667 184.745 31.7969 185.391 31.7969C186.016 31.7969 186.552 31.6667 187 31.4062C187.448 31.1458 187.807 30.7865 188.078 30.3281C188.349 29.8594 188.547 29.3177 188.672 28.7031C188.807 28.0885 188.875 27.4271 188.875 26.7188V26.3906C188.875 25.7031 188.807 25.0573 188.672 24.4531C188.547 23.8385 188.344 23.2969 188.062 22.8281C187.792 22.349 187.432 21.974 186.984 21.7031C186.536 21.4323 185.995 21.2969 185.359 21.2969C184.724 21.2969 184.182 21.4323 183.734 21.7031C183.297 21.974 182.938 22.349 182.656 22.8281C182.385 23.2969 182.188 23.8385 182.062 24.4531C181.938 25.0573 181.875 25.7031 181.875 26.3906ZM200.984 30.625L204.5 18.0938H207.359L206.438 23.0156L202.922 35H200.531L200.984 30.625ZM199.203 18.0938L201.719 30.6094L201.953 35H199.141L194.859 18.0938H199.203ZM210.578 30.4062L213.031 18.0938H217.391L213.109 35H210.312L210.578 30.4062ZM207.75 18.0938L211.25 30.5312L211.734 35H209.328L205.812 23.0312L204.922 18.0938H207.75Z" fill="white" fill-opacity="0.2"/>
</svg>
