<svg width="30" height="24" viewBox="0 0 30 24" fill="none" xmlns="http://www.w3.org/2000/svg">
<path d="M0.117188 17.209C0.117188 20.4961 2.7832 23.1621 6.07031 23.1621C9.35742 23.1621 12.0234 20.4961 12.0234 17.209C12.0234 13.9219 9.35742 11.2559 6.07031 11.2559C5.08594 11.2559 4.17773 11.5137 3.35742 11.9355C4.41211 7.29492 8.56641 3.81445 13.5234 3.81445C14.3438 3.81445 15.0117 3.14648 15.0117 2.32617C15.0117 1.50586 14.3438 0.837891 13.5234 0.837891C6.12891 0.837891 0.117188 6.84961 0.117188 14.2441V17.209ZM14.9883 17.209C14.9883 20.4961 17.6543 23.1621 20.9414 23.1621C24.2285 23.1621 26.8945 20.4961 26.8945 17.209C26.8945 13.9219 24.2285 11.2559 20.9414 11.2559C19.957 11.2559 19.0488 11.5137 18.2285 11.9355C19.2832 7.29492 23.4375 3.81445 28.3945 3.81445C29.2148 3.81445 29.8828 3.14648 29.8828 2.32617C29.8828 1.50586 29.2148 0.837891 28.3945 0.837891C21 0.837891 14.9883 6.84961 14.9883 14.2441V17.209Z" fill="#CE4E61"/>
</svg>
