<svg width="25" height="24" viewBox="0 0 25 24" fill="none" xmlns="http://www.w3.org/2000/svg">
<path d="M8.89371 3.63374C10.1866 2.1932 12.2033 1.64473 14.047 2.23237C15.891 2.82021 17.2199 4.43563 17.4416 6.35933C18.9174 6.35949 20.6654 7.23816 21.1486 9.87495L21.9044 15.747C22.1943 17.7861 21.8159 19.3592 20.9377 20.4052C20.0591 21.4513 18.6183 21.9619 16.5451 21.9619H8.54215C6.90439 22.1674 5.27187 21.5383 4.19449 20.2871C3.11741 19.0359 2.73757 17.3283 3.18277 15.7382C3.24342 15.3183 3.6332 15.0272 4.05289 15.0878C4.47246 15.1486 4.76392 15.5381 4.70328 15.958C4.42875 17.1086 4.66882 18.3216 5.36148 19.2802C6.21273 20.0876 7.36312 20.5018 8.53336 20.4228H16.5451C18.1351 20.4228 19.2328 20.0889 19.8039 19.3945C20.3749 18.7001 20.6035 17.5402 20.3752 15.958L19.6291 10.1474C19.3655 8.74116 18.5483 7.86247 17.4416 7.86226H7.63687C6.58275 7.86234 5.76563 8.74108 5.44058 10.2089L5.22965 11.5009C5.13281 11.8957 4.74715 12.1485 4.34683 12.0791C3.9466 12.0095 3.66844 11.6416 3.71011 11.2373L3.92984 9.9189C4.50965 7.23805 6.22252 6.35939 7.63687 6.35933H15.8771C15.7564 5.58036 15.3723 4.86585 14.7882 4.33687C13.4004 3.09497 11.269 3.21304 10.0265 4.60054V4.68843C9.8382 4.89099 9.55576 4.97787 9.28629 4.91597C9.01703 4.85394 8.80099 4.65293 8.71988 4.38862C8.63877 4.12419 8.70542 3.83627 8.89371 3.63374ZM9.59586 10.3496C9.70852 10.3233 9.82596 10.3233 9.93863 10.3496C9.9968 10.3577 10.0533 10.3755 10.1056 10.4023C10.1596 10.4198 10.2102 10.4466 10.255 10.4814C10.3077 10.5118 10.3552 10.5503 10.3957 10.5957C10.4401 10.6313 10.4761 10.6763 10.5011 10.7275C10.5352 10.7743 10.5647 10.8243 10.589 10.8769L10.6418 11.0439C10.6465 11.1023 10.6465 11.1613 10.6418 11.2197C10.6418 11.7051 10.248 12.0986 9.76285 12.0986C9.53732 12.0907 9.32303 11.9963 9.16519 11.8349C9.08224 11.7522 9.01716 11.6533 8.97281 11.5449C8.93083 11.4386 8.90989 11.3251 8.91129 11.2109C8.90225 11.1527 8.90223 11.0933 8.91129 11.0351C8.91945 10.977 8.93731 10.9204 8.96402 10.8681C8.97277 10.8412 8.98308 10.8149 8.99625 10.79L9.08804 10.6474C9.10571 10.6253 9.12542 10.6047 9.14761 10.5869C9.18602 10.5454 9.23063 10.5098 9.27945 10.4814C9.32423 10.4467 9.37498 10.4199 9.42886 10.4023C9.48111 10.3756 9.53774 10.3577 9.59586 10.3496ZM15.2101 10.3408C15.3225 10.3146 15.4395 10.3147 15.5519 10.3408C15.6664 10.3673 15.7765 10.4119 15.8771 10.4726C15.9669 10.5435 16.0469 10.6264 16.1144 10.7187C16.1525 10.7613 16.1797 10.8127 16.1935 10.8681C16.2202 10.9204 16.2381 10.977 16.2462 11.0351C16.2553 11.0933 16.2553 11.1527 16.2462 11.2109C16.2492 11.3261 16.2251 11.4406 16.1759 11.5449C16.1319 11.6582 16.0592 11.7581 15.965 11.8349C15.8029 12.0004 15.5823 12.0952 15.3507 12.0986C15.2335 12.0939 15.1176 12.0701 15.008 12.0283C14.8248 11.9194 14.6872 11.7476 14.6212 11.5449C14.5748 11.44 14.5537 11.3254 14.5597 11.2109C14.5508 11.1527 14.5508 11.0933 14.5597 11.0351V10.8681L14.6476 10.7187C14.6726 10.6676 14.7087 10.6225 14.7531 10.5869L14.8849 10.4726C14.9338 10.4394 14.9872 10.4127 15.0431 10.3935C15.0959 10.3681 15.1524 10.3503 15.2101 10.3408Z" fill="#333333"/>
</svg>
