<svg width="17" height="20" viewBox="0 0 17 20" fill="none" xmlns="http://www.w3.org/2000/svg">
<path d="M8.5 12.6396C10.4784 12.6396 16.5 12.6392 16.5 16.3301C16.5 19.619 11.9345 20 8.5 20C8.15384 20 7.81263 19.9954 7.47754 19.9854C7.07909 19.9753 6.7653 19.644 6.77734 19.2471C6.78841 18.8512 7.13227 18.553 7.51855 18.5498C7.84057 18.5588 8.16792 18.5635 8.5 18.5635C12.8492 18.5635 15.0547 17.812 15.0547 16.3301C15.0547 14.8341 12.8492 14.0752 8.5 14.0752C4.15082 14.0752 1.94531 14.8276 1.94531 16.3105C1.94542 16.7955 2.11856 17.4981 3.62012 18.0039C3.99848 18.1309 4.20104 18.5381 4.07324 18.9131C3.94441 19.288 3.53559 19.4933 3.15625 19.3633C0.961069 18.6244 0.500142 17.2954 0.5 16.3105C0.5 13.0206 5.06553 12.6396 8.5 12.6396ZM8.5 0C11.4704 0 13.8865 2.40175 13.8867 5.35352C13.8867 8.30444 11.4706 10.707 8.5 10.707C5.52943 10.707 3.1123 8.30444 3.1123 5.35352C3.1125 2.40175 5.52955 0 8.5 0ZM8.5 1.43652C6.32653 1.43652 4.55878 3.19373 4.55859 5.35352C4.55859 7.51246 6.32642 9.26953 8.5 9.26953C10.6736 9.26953 12.4414 7.51246 12.4414 5.35352C12.4412 3.19373 10.6735 1.43652 8.5 1.43652Z" fill="#333333"/>
</svg>
