<svg width="41" height="40" viewBox="0 0 41 40" fill="none" xmlns="http://www.w3.org/2000/svg">
<rect width="41" height="40" fill="#1E1E1E"/>
<g clip-path="url(#clip0_1_2)">
<rect width="1920" height="5871" transform="translate(-261 -75)" fill="#FBFBFB"/>
<g filter="url(#filter0_d_1_2)">
<rect width="1920" height="96" transform="translate(-261 -27)" fill="white"/>
<rect width="1920" height="96" transform="translate(-261 -27)" fill="white" fill-opacity="0.2"/>
<g clip-path="url(#clip1_1_2)">
<path d="M2.07224 25.6533V38.8749C2.07222 38.9843 2.09376 39.0926 2.13562 39.1937C2.17749 39.2948 2.23885 39.3866 2.31621 39.464C2.39357 39.5413 2.48542 39.6027 2.5865 39.6446C2.68758 39.6864 2.79591 39.708 2.90532 39.708H15.0519C15.1613 39.708 15.2696 39.6864 15.3707 39.6446C15.4717 39.6027 15.5635 39.5413 15.6409 39.464C15.7182 39.3866 15.7796 39.2948 15.8215 39.1937C15.8633 39.0927 15.8849 38.9844 15.8849 38.875V25.6533H2.07224Z" fill="#FCE8CB"/>
<path d="M15.8852 25.3604H2.07252C1.91118 25.3604 1.78024 25.4909 1.78024 25.6526V38.8742C1.78024 39.495 2.28529 39.9995 2.9056 39.9995H15.0518C15.6725 39.9995 16.1775 39.4949 16.1775 38.8743V25.6526C16.1775 25.4909 16.047 25.3604 15.8852 25.3604ZM15.593 38.8742C15.5928 39.0176 15.5358 39.155 15.4344 39.2564C15.333 39.3578 15.1955 39.4148 15.0522 39.415H2.9056C2.76225 39.4148 2.62482 39.3578 2.52346 39.2564C2.4221 39.1551 2.36507 39.0176 2.36489 38.8743V25.9449H15.593V38.8742Z" fill="#3A312A"/>
<path d="M2.07224 29.4307H15.885V35.9304H2.07224V29.4307Z" fill="#F16C7A"/>
<path d="M15.8852 29.1377H2.07252C1.995 29.1377 1.92066 29.1685 1.86585 29.2233C1.81104 29.2781 1.78024 29.3525 1.78024 29.43V35.9293C1.78024 36.091 1.91118 36.2216 2.07252 36.2216H15.8852C16.047 36.2216 16.1775 36.091 16.1775 35.9293V29.43C16.1775 29.2686 16.047 29.1377 15.8852 29.1377ZM15.593 35.6374H2.36479V29.7226H15.593V35.6374Z" fill="#3A312A"/>
<path d="M16.6317 22.5957H1.32598C1.26319 22.5957 1.20101 22.608 1.14298 22.632C1.08496 22.656 1.03223 22.6912 0.987814 22.7356C0.943394 22.78 0.908152 22.8327 0.884098 22.8907C0.860045 22.9487 0.847651 23.0109 0.847626 23.0737V25.2242C0.847626 25.4883 1.06196 25.7022 1.32598 25.7022H16.6317C16.6944 25.7022 16.7566 25.6899 16.8146 25.6658C16.8726 25.6418 16.9253 25.6066 16.9697 25.5622C17.014 25.5178 17.0492 25.4652 17.0733 25.4072C17.0973 25.3492 17.1096 25.287 17.1096 25.2242V23.0737C17.1096 23.0109 17.0973 22.9487 17.0733 22.8907C17.0492 22.8327 17.014 22.7801 16.9697 22.7357C16.9253 22.6913 16.8726 22.6561 16.8146 22.6321C16.7566 22.608 16.6944 22.5957 16.6317 22.5957Z" fill="#87796F"/>
<path d="M16.6319 22.3039H8.33064C8.25312 22.3039 8.17878 22.3347 8.12397 22.3895C8.06916 22.4443 8.03836 22.5187 8.03836 22.5962C8.03836 22.6737 8.06916 22.748 8.12397 22.8029C8.17878 22.8577 8.25312 22.8885 8.33064 22.8885H16.6319C16.7342 22.8885 16.8176 22.9718 16.8176 23.0742V25.2247C16.8176 25.327 16.7343 25.4104 16.6319 25.4104H1.32627C1.27704 25.4103 1.22985 25.3907 1.19505 25.3559C1.16024 25.3211 1.14065 25.2739 1.14057 25.2247V23.0742C1.14057 22.9719 1.22397 22.8885 1.32627 22.8885H5.77586C5.85338 22.8885 5.92772 22.8577 5.98253 22.8029C6.03734 22.748 6.06814 22.6737 6.06814 22.5962C6.06814 22.5187 6.03734 22.4443 5.98253 22.3895C5.92772 22.3347 5.85338 22.3039 5.77586 22.3039H1.32627C0.901492 22.3039 0.555634 22.6491 0.555634 23.0742V25.2247C0.555634 25.6495 0.9012 25.995 1.32627 25.995H16.6315C17.0563 25.995 17.4022 25.6498 17.4022 25.2247V23.0742C17.4022 22.6494 17.0566 22.3039 16.6319 22.3039Z" fill="#3A312A"/>
<path d="M12.9013 0.291992H18.7742V1.87856H12.9013V0.291992Z" fill="#87796F"/>
<path d="M18.7737 0H12.9009C12.8233 0 12.749 0.0307932 12.6942 0.0856054C12.6394 0.140418 12.6086 0.214759 12.6086 0.292275V1.87884C12.6086 2.04057 12.7395 2.17112 12.9009 2.17112H18.7737C18.9355 2.17112 19.066 2.04057 19.066 1.87884V0.292275C19.066 0.130939 18.9355 0 18.7737 0ZM18.4815 1.58657H13.1931V0.58455H18.4815V1.58657Z" fill="#3A312A"/>
<path d="M16.09 1.87885H18.0427V7.79742H16.09V1.87885Z" fill="#87796F"/>
<path d="M18.0428 1.58691H16.0901C16.0126 1.58691 15.9382 1.61771 15.8834 1.67252C15.8286 1.72733 15.7978 1.80167 15.7978 1.87919V7.79776C15.7978 7.95949 15.9288 8.09004 16.0901 8.09004H18.0428C18.2045 8.09004 18.3351 7.95949 18.3351 7.79776V1.87919C18.3351 1.71785 18.2045 1.58691 18.0428 1.58691ZM17.7505 7.50549H16.3824V2.17146H17.7505V7.50549Z" fill="#3A312A"/>
<path d="M20.5925 10.3545H13.6269C12.9895 10.3545 12.4726 10.8713 12.4726 11.5088V38.553C12.4726 39.1905 12.9895 39.7072 13.6269 39.7072H20.5924C21.2299 39.7072 21.7467 39.1905 21.7467 38.553V11.5088C21.7467 10.8713 21.23 10.3545 20.5925 10.3545Z" fill="#F16C7A"/>
<path d="M20.5926 10.0625H13.627C12.8293 10.0625 12.1804 10.7118 12.1804 11.5091V14.9118C12.1804 14.9893 12.2112 15.0636 12.266 15.1184C12.3208 15.1733 12.3951 15.2041 12.4727 15.2041C12.5502 15.2041 12.6245 15.1733 12.6793 15.1184C12.7341 15.0636 12.7649 14.9893 12.7649 14.9118V11.5091C12.7649 11.0342 13.1517 10.6471 13.627 10.6471H20.5925C21.0679 10.6471 21.4545 11.0342 21.4545 11.5091V38.5533C21.4545 39.0287 21.0678 39.4153 20.5925 39.4153H13.627C13.1516 39.4153 12.7649 39.0287 12.7649 38.5533V17.554C12.7649 17.4765 12.7341 17.4022 12.6793 17.3474C12.6245 17.2926 12.5502 17.2618 12.4727 17.2618C12.3951 17.2618 12.3208 17.2926 12.266 17.3474C12.2112 17.4022 12.1804 17.4765 12.1804 17.554V38.5533C12.1804 39.351 12.8297 39.9998 13.627 39.9998H20.5925C21.3902 39.9998 22.039 39.3506 22.039 38.5533V11.5091C22.0394 10.7118 21.3903 10.0625 20.5926 10.0625Z" fill="#3A312A"/>
<path d="M19.429 7.12598H14.7914C14.2343 7.12598 13.7802 7.57803 13.7802 8.13744V10.3546H20.4402V8.13744C20.4402 7.57803 19.9863 7.12598 19.429 7.12598Z" fill="#FCE8CB"/>
<path d="M19.4284 6.83398H14.7907C14.0722 6.83398 13.4873 7.41883 13.4873 8.13773V10.3549C13.4873 10.5167 13.6182 10.6472 13.7795 10.6472H20.4395C20.6013 10.6472 20.7318 10.5167 20.7318 10.3549V8.13773C20.7318 7.41883 20.1473 6.83398 19.4284 6.83398ZM20.1473 10.0627H14.0718V8.13773C14.0718 7.74121 14.3946 7.41853 14.7908 7.41853H19.4283C19.8249 7.41853 20.1473 7.74121 20.1473 8.13773V10.0627Z" fill="#3A312A"/>
<path d="M12.4727 21.4289H21.7467V27.725H12.4727V21.4289Z" fill="#FCE8CB"/>
<path d="M21.747 21.1367H12.4727C12.3113 21.1367 12.1804 21.2672 12.1804 21.4289V27.725C12.1804 27.8025 12.2112 27.8769 12.266 27.9317C12.3208 27.9865 12.3951 28.0173 12.4727 28.0173H21.7471C21.8247 28.0173 21.899 27.9865 21.9538 27.9317C22.0086 27.8769 22.0394 27.8025 22.0394 27.725V21.4289C22.0394 21.3514 22.0086 21.2771 21.9538 21.2223C21.899 21.1675 21.8246 21.1367 21.747 21.1367ZM21.4548 27.4328H12.7649V21.7212H21.4549L21.4548 27.4328Z" fill="#3A312A"/>
<path d="M21.2187 37.0859V38.6889C21.2187 39.2514 21.6747 39.7073 22.2371 39.7073H28.9035C29.4659 39.7073 29.9219 39.2513 29.9219 38.6889V37.0859H21.2187Z" fill="#87796F"/>
<path d="M29.9212 36.7939H21.218C21.0563 36.7939 20.9258 36.9249 20.9258 37.0862V38.6892C20.9258 39.4119 21.5137 39.9998 22.2364 39.9998H28.9028C29.6255 39.9998 30.2135 39.4119 30.2135 38.6892V37.0862C30.2135 37.0087 30.1827 36.9344 30.1279 36.8796C30.0731 36.8247 29.9987 36.7939 29.9212 36.7939ZM29.6289 38.6892C29.6289 39.0896 29.3031 39.4153 28.9028 39.4153H22.2364C21.836 39.4153 21.5103 39.0896 21.5103 38.6892V37.3785H29.6293V38.6892H29.6289Z" fill="#3A312A"/>
<path d="M21.2185 32.8494H29.9217V37.0862H21.2185V32.8494Z" fill="#87796F"/>
<path d="M29.9212 32.5566H21.218C21.0563 32.5566 20.9258 32.6876 20.9258 32.8489V37.0857C20.9258 37.2475 21.0563 37.378 21.218 37.378H29.9212C30.0829 37.378 30.2135 37.2475 30.2135 37.0857V32.8489C30.2135 32.7714 30.1827 32.6971 30.1279 32.6422C30.0731 32.5874 29.9987 32.5566 29.9212 32.5566ZM29.6289 36.7935H21.5103V33.1412H29.6289V36.7935Z" fill="#3A312A"/>
<path d="M30.4102 8.76855H20.732C20.1745 8.76855 19.7323 9.23814 19.7654 9.79541L19.8221 10.7734L21.2188 32.8501H29.922L31.3103 10.7734L31.3746 9.80331C31.4138 9.24399 30.9693 8.76855 30.4103 8.76855H30.4102Z" fill="#F16C7A"/>
<path d="M31.3302 8.8763C31.2124 8.7501 31.07 8.64942 30.9117 8.58049C30.7534 8.51156 30.5827 8.47586 30.4101 8.47559H20.7319C20.381 8.47559 20.0557 8.61637 19.8147 8.87142C19.6971 8.99688 19.6063 9.14492 19.5476 9.30657C19.489 9.46822 19.4639 9.6401 19.4737 9.81177L19.5304 10.7914L20.9271 32.868C20.9319 32.9422 20.9647 33.0117 21.0189 33.0626C21.0731 33.1134 21.1447 33.1417 21.219 33.1417H29.9222C29.9966 33.1417 30.0682 33.1134 30.1224 33.0624C30.1766 33.0115 30.2094 32.9418 30.2141 32.8676L31.6024 10.7921L31.6667 9.82171C31.678 9.64951 31.654 9.47682 31.5962 9.31424C31.5383 9.15166 31.4478 9.00262 31.3303 8.8763H31.3302ZM31.0828 9.78322L31.0181 10.7545L29.647 32.5575H21.4925L20.1133 10.7559L20.0566 9.77748C20.0509 9.68525 20.0642 9.59281 20.0957 9.50594C20.1272 9.41907 20.1762 9.33961 20.2398 9.27252C20.3027 9.20522 20.3788 9.15165 20.4634 9.11517C20.548 9.07869 20.6393 9.06009 20.7314 9.06053H30.4096C30.5021 9.06018 30.5937 9.07909 30.6785 9.11604C30.7634 9.15299 30.8396 9.20717 30.9024 9.27515C30.966 9.34255 31.0149 9.42248 31.0459 9.50982C31.0769 9.59717 31.0893 9.69002 31.0824 9.78245V9.78322H31.0828Z" fill="#3A312A"/>
<path d="M30.4102 8.76855H20.732C20.1745 8.76855 19.7323 9.23814 19.7654 9.79541L19.8221 10.7734H31.3103L31.3746 9.80331C31.4138 9.24399 30.9693 8.76855 30.4103 8.76855H30.4102Z" fill="#87796F"/>
<path d="M31.3302 8.8763C31.2124 8.7501 31.07 8.64942 30.9117 8.58049C30.7534 8.51156 30.5827 8.47586 30.4101 8.47559H20.7319C20.381 8.47559 20.0557 8.61637 19.8147 8.87142C19.6971 8.99688 19.6063 9.14492 19.5476 9.30657C19.489 9.46822 19.4639 9.6401 19.4737 9.81177L19.53 10.7898C19.5344 10.8643 19.5671 10.9343 19.6213 10.9855C19.6756 11.0367 19.7473 11.0653 19.8219 11.0653H31.3105C31.3846 11.0653 31.4559 11.0371 31.51 10.9864C31.5641 10.9358 31.597 10.8665 31.602 10.7925L31.6663 9.822C31.6778 9.64978 31.6539 9.47702 31.5961 9.31437C31.5384 9.15173 31.4479 9.00264 31.3303 8.8763H31.3302ZM31.0828 9.78322L31.0363 10.4804H20.0977L20.057 9.77748C20.046 9.58915 20.1111 9.4095 20.2401 9.27252C20.3691 9.13554 20.5438 9.06014 20.7318 9.06014H30.41C30.5983 9.06014 30.7738 9.13662 30.9028 9.27515C30.9664 9.3425 31.0152 9.42235 31.0462 9.50963C31.0772 9.59691 31.0897 9.68969 31.0828 9.78206V9.78322Z" fill="#3A312A"/>
<path d="M26.9175 17.5686C25.1219 16.8249 23.0631 17.6774 22.3195 19.4729C21.5759 21.2685 22.4283 23.3273 24.2239 24.0709C26.0194 24.8146 28.0782 23.9621 28.8219 22.1665C29.5655 20.3707 28.713 18.3122 26.9175 17.5686Z" fill="#FCE8CB"/>
<path d="M25.5698 17.0088C23.4683 17.0088 21.7588 18.7183 21.7588 20.8198C21.7588 22.9216 23.4683 24.6311 25.5697 24.6311C27.6716 24.6311 29.3811 22.9216 29.3811 20.8199C29.3811 18.7183 27.6716 17.0088 25.5698 17.0088ZM25.5698 24.0466C23.7906 24.0466 22.3433 22.5988 22.3433 20.8199C22.3433 19.0409 23.7906 17.5933 25.5697 17.5933C27.3489 17.5933 28.7966 19.0406 28.7966 20.8198C28.7966 22.5989 27.3493 24.0466 25.5698 24.0466Z" fill="#3A312A"/>
<path d="M35.6824 16.6396H29.7177C29.6885 16.6396 29.6596 16.6453 29.6326 16.6565C29.6056 16.6676 29.581 16.684 29.5603 16.7046C29.5397 16.7253 29.5233 16.7498 29.5121 16.7768C29.5009 16.8037 29.4951 16.8327 29.4951 16.8619V18.9066C29.4952 18.9656 29.5187 19.0222 29.5604 19.0639C29.6021 19.1055 29.6587 19.129 29.7177 19.129H35.6824C35.7413 19.1289 35.7978 19.1054 35.8394 19.0637C35.8811 19.0221 35.9045 18.9656 35.9046 18.9066V16.8619C35.9046 16.8029 35.8812 16.7464 35.8395 16.7047C35.7978 16.6631 35.7413 16.6396 35.6824 16.6396Z" fill="#87796F"/>
<path d="M35.6826 16.3477H29.718C29.5815 16.3477 29.4507 16.402 29.3541 16.4984C29.2576 16.5949 29.2033 16.7257 29.2031 16.8622V18.9069C29.2032 19.0434 29.2576 19.1742 29.3541 19.2707C29.4506 19.3672 29.5815 19.4214 29.718 19.4215H35.6826C35.819 19.4213 35.9498 19.367 36.0462 19.2705C36.1427 19.1741 36.1969 19.0433 36.1971 18.9069V16.8622C36.197 16.7258 36.1427 16.595 36.0463 16.4985C35.9498 16.4021 35.819 16.3478 35.6826 16.3477ZM35.6126 18.8369H29.788V16.9322H35.6126V18.8369Z" fill="#3A312A"/>
<path d="M36.4013 24.634L36.3088 24.4935C35.4751 23.2279 35.0308 21.7456 35.0309 20.2301V19.1299H30.369V20.2301C30.3691 21.7456 29.9248 23.2279 29.0911 24.4935L28.9989 24.634C28.1651 25.8996 27.7207 27.3819 27.7207 28.8974V38.3857C27.7207 39.116 28.3127 39.7078 29.0431 39.7078H36.3572C37.0875 39.7078 37.6797 39.116 37.6797 38.3857V28.8975C37.6795 27.382 37.235 25.8997 36.4013 24.634Z" fill="#F16C7A"/>
<path d="M36.6447 24.4727L36.5525 24.3327C35.7492 23.1152 35.3215 21.6884 35.3225 20.2298V19.1292C35.3225 19.0517 35.2918 18.9773 35.2369 18.9225C35.1821 18.8677 35.1078 18.8369 35.0303 18.8369H30.3688C30.207 18.8369 30.0765 18.9678 30.0765 19.1292V20.2298C30.0776 21.6884 29.6499 23.1152 28.8465 24.3327L28.754 24.4727C27.8876 25.7855 27.4264 27.3242 27.4277 28.8971V38.3854C27.4277 39.2756 28.152 39.9998 29.0425 39.9998H36.3566C37.2467 39.9998 37.9713 39.2756 37.9713 38.3854V28.8972C37.9724 27.3242 37.5111 25.7856 36.6447 24.4727ZM37.3864 38.3851C37.3864 38.9532 36.9244 39.4152 36.3566 39.4152H29.0421C28.4742 39.4152 28.0124 38.9528 28.0124 38.3851V28.8972C28.0111 27.4385 28.4388 26.0115 29.2422 24.794L29.3344 24.654C30.2008 23.3411 30.662 21.8025 30.6607 20.2295V19.4216H34.7377V20.2295C34.7365 21.8025 35.1978 23.3411 36.0643 24.654L36.1564 24.794C36.9597 26.0116 37.3873 27.4385 37.386 28.8972V38.3852L37.3864 38.3851Z" fill="#3A312A"/>
<path d="M27.7207 29.5479H37.6794V34.8442H27.7207V29.5479Z" fill="#FCE8CB"/>
<path d="M37.6787 29.2549H27.72C27.5586 29.2549 27.4277 29.3854 27.4277 29.5472V34.8435C27.4277 34.921 27.4585 34.9953 27.5133 35.0501C27.5681 35.105 27.6425 35.1358 27.72 35.1358H37.6787C37.7562 35.1358 37.8305 35.105 37.8853 35.0501C37.9402 34.9953 37.9709 34.921 37.9709 34.8435V29.5472C37.9709 29.3854 37.84 29.2549 37.6787 29.2549ZM37.3864 34.5512H28.0123V29.8394H37.3864V34.5512Z" fill="#3A312A"/>
<path d="M7.94971 11.6004C7.75973 13.8538 5.41208 14.2096 5.41208 14.2096C7.4279 14.3043 7.93022 16.9489 7.93022 16.9489C7.97368 15.0632 10.5261 14.1815 10.5261 14.1815C8.61376 14.0672 7.94971 11.6004 7.94971 11.6004Z" fill="#F16C7A"/>
<path d="M10.5432 13.8897C8.86678 13.7897 8.23771 11.5469 8.23157 11.5242C8.19465 11.3875 8.06644 11.2985 7.92293 11.3095C7.85456 11.3157 7.79057 11.3458 7.7422 11.3946C7.69383 11.4433 7.66416 11.5075 7.65842 11.5759C7.49066 13.5663 5.4535 13.9069 5.36786 13.9206C5.29628 13.9317 5.23136 13.9689 5.18566 14.0251C5.13996 14.0813 5.11673 14.1524 5.12048 14.2248C5.12423 14.2971 5.15468 14.3655 5.20594 14.4166C5.2572 14.4678 5.32563 14.4981 5.39797 14.5017C7.15688 14.5843 7.63826 16.9796 7.64283 17.0039C7.65652 17.0748 7.69594 17.1381 7.75349 17.1816C7.81104 17.2252 7.88267 17.2459 7.95459 17.2399C8.02638 17.2338 8.0934 17.2014 8.14277 17.149C8.19213 17.0965 8.22036 17.0276 8.22203 16.9556C8.26012 15.2978 10.5975 14.4659 10.6216 14.4579C10.6854 14.4356 10.7395 14.3919 10.7748 14.3343C10.8101 14.2767 10.8244 14.2086 10.8153 14.1417C10.806 14.0747 10.7738 14.0131 10.7242 13.9672C10.6746 13.9212 10.6106 13.8939 10.5432 13.8897ZM7.89974 15.9056C7.63523 15.2959 7.17704 14.5599 6.42122 14.1763C6.99242 13.9027 7.67021 13.4137 8.01958 12.5642C8.32179 13.1628 8.83785 13.905 9.64307 14.2638C9.05745 14.5832 8.2947 15.122 7.89974 15.9056Z" fill="#CE4E61"/>
<path d="M3.72188 14.9092C3.58753 16.5027 1.92673 16.7542 1.92673 16.7542C3.35274 16.8215 3.70824 18.692 3.70824 18.692C3.73864 17.3585 5.54402 16.7347 5.54402 16.7347C4.19147 16.6537 3.72188 14.9092 3.72188 14.9092Z" fill="#F16C7A"/>
<path d="M5.56107 16.4436C4.43767 16.3763 4.00802 14.8487 4.00383 14.8331C3.98602 14.7667 3.94531 14.7088 3.88891 14.6695C3.8325 14.6302 3.76403 14.6121 3.69558 14.6184C3.62709 14.6246 3.56298 14.6548 3.51451 14.7035C3.46605 14.7523 3.43633 14.8166 3.43058 14.8852C3.31757 16.224 1.94076 16.4569 1.88289 16.4661C1.81123 16.477 1.74618 16.5141 1.70039 16.5703C1.6546 16.6265 1.63134 16.6977 1.63514 16.77C1.63879 16.8426 1.6693 16.9111 1.72074 16.9624C1.77218 17.0136 1.84086 17.0439 1.91338 17.0472C3.0893 17.1024 3.41811 18.7316 3.42113 18.7476C3.43393 18.8143 3.46958 18.8746 3.52195 18.9179C3.57433 18.9612 3.64017 18.985 3.70815 18.985C3.71614 18.985 3.72412 18.985 3.7325 18.9842C3.8044 18.9782 3.87152 18.9458 3.92098 18.8933C3.97043 18.8407 3.99873 18.7718 4.00042 18.6996C4.02585 17.5872 5.62391 17.0171 5.6395 17.0118C5.70355 16.9897 5.75796 16.9461 5.79343 16.8884C5.8289 16.8307 5.84322 16.7625 5.83396 16.6954C5.8247 16.6283 5.79243 16.5665 5.74265 16.5206C5.69288 16.4747 5.6287 16.4474 5.56107 16.4436ZM3.69363 17.7676C3.51359 17.4003 3.23768 16.9985 2.82752 16.739C3.18897 16.5361 3.54749 16.2263 3.77664 15.7811C3.9825 16.146 4.29338 16.5513 4.7391 16.7987C4.37863 17.013 3.96184 17.3326 3.69363 17.7676Z" fill="#CE4E61"/>
<path d="M3.72178 9.71484C3.58743 11.3082 1.92673 11.5602 1.92673 11.5602C3.35274 11.6272 3.70824 13.4977 3.70824 13.4977C3.73864 12.1641 5.54402 11.5404 5.54402 11.5404C4.19147 11.4593 3.72178 9.71484 3.72178 9.71484Z" fill="#F16C7A"/>
<path d="M5.56151 11.2488C4.44346 11.1823 4.01225 9.66836 4.00427 9.63914C3.98641 9.57274 3.94571 9.51477 3.88932 9.47543C3.83294 9.43608 3.76449 9.41788 3.69601 9.42402C3.6275 9.43009 3.56332 9.46014 3.51479 9.50888C3.46626 9.55763 3.43649 9.62194 3.43072 9.69048C3.3181 11.0293 1.94109 11.2622 1.88332 11.2713C1.81138 11.2819 1.74599 11.319 1.69991 11.3753C1.65383 11.4315 1.63039 11.5029 1.63415 11.5756C1.63791 11.6482 1.66861 11.7168 1.72026 11.768C1.7719 11.8192 1.84077 11.8493 1.91343 11.8524C3.08935 11.9077 3.41816 13.5369 3.42118 13.5528C3.43395 13.6196 3.46959 13.6798 3.52197 13.7232C3.57435 13.7665 3.6402 13.7903 3.70819 13.7903C3.71618 13.7903 3.72417 13.7903 3.73255 13.7895C3.80446 13.7835 3.8716 13.7511 3.92105 13.6985C3.97051 13.646 3.9988 13.577 4.00047 13.5049C4.02589 12.3925 5.62396 11.8223 5.63954 11.8171C5.70345 11.7949 5.7577 11.7513 5.79308 11.6936C5.82845 11.636 5.84278 11.5678 5.83362 11.5008C5.82453 11.4338 5.79241 11.372 5.74277 11.326C5.69313 11.2801 5.62905 11.2527 5.56151 11.2488ZM3.69406 12.5728C3.51402 12.2056 3.23811 11.8037 2.82796 11.5442C3.1894 11.3413 3.54793 11.0315 3.77707 10.5859C3.98293 10.9513 4.29381 11.3565 4.73953 11.604C4.37906 11.8186 3.96227 12.1378 3.69406 12.5728Z" fill="#CE4E61"/>
<path d="M12.1812 38.5535V36.2209H10.3008V38.5535C10.3008 38.8769 10.4099 39.1749 10.5891 39.4147H12.4677C12.2814 39.1663 12.1809 38.864 12.1812 38.5535ZM10.3008 25.9951H12.1811V29.1382H10.3008V25.9951Z" fill="#CCAE8B"/>
<path d="M10.3008 29.7227H12.1811V35.6364H10.3008V29.7227Z" fill="#CE4E61"/>
<path d="M10.3008 22.8877H12.1811V25.4108H10.3008V22.8877Z" fill="#6B5B51"/>
<path d="M19.5311 10.7916V10.7897L19.5214 10.6475H17.8398L17.8475 10.7897V10.7916L18.502 21.1362H20.1857L19.5311 10.7916ZM20.9263 38.6902V32.8603L20.6204 28.0182H18.9367L19.2426 32.8603V38.6902C19.2426 38.8987 19.2952 39.0974 19.3831 39.2728C19.2427 39.3657 19.078 39.4152 18.9096 39.4151H20.5929C20.7684 39.4151 20.9301 39.3626 21.0645 39.2729C20.9739 39.092 20.9266 38.8925 20.9263 38.6902Z" fill="#CE4E61"/>
<path d="M19.4298 7.41797H17.7461C18.1416 7.41797 18.4651 7.73947 18.4651 8.13716V8.6201C18.3409 8.68496 18.2283 8.76997 18.132 8.87165C18.014 8.99659 17.9228 9.14441 17.8642 9.30596C17.8055 9.46751 17.7806 9.63937 17.791 9.81092L17.8043 10.0621H19.4879L19.4743 9.81092C19.4641 9.6394 19.4891 9.46761 19.5477 9.3061C19.6064 9.14459 19.6974 8.99678 19.8153 8.87175C19.9109 8.76909 20.0237 8.68392 20.1487 8.6201V8.13716C20.1487 7.73947 19.8253 7.41797 19.4298 7.41797ZM20.2224 21.72H18.5392L18.8997 27.433H20.5832L20.2224 21.72Z" fill="#CCAE8B"/>
<path d="M27.4282 38.386V37.3782H25.9746V38.386C25.9746 38.7757 26.1127 39.1361 26.3467 39.4146H27.8002C27.5597 39.1258 27.4281 38.7618 27.4282 38.386ZM25.9747 33.1426H27.4281V36.7937H25.9747V33.1426Z" fill="#6B5B51"/>
<path d="M29.7176 16.3488H30.6667L30.9997 11.0664H29.5439L29.2129 16.3488H28.2641C28.1965 16.3487 28.1296 16.362 28.0671 16.3878C28.0047 16.4136 27.948 16.4515 27.9002 16.4993C27.8524 16.5471 27.8145 16.6038 27.7887 16.6663C27.7629 16.7287 27.7496 16.7956 27.7497 16.8632V17.6952C28.7356 18.3852 29.3825 19.5287 29.3825 20.8208C29.3825 22.1961 28.6496 23.4026 27.5548 24.0746C27.5035 24.1626 27.4495 24.249 27.393 24.3337L27.2995 24.4724C26.434 25.7857 25.9733 27.3243 25.9746 28.8971V32.5586H27.428V28.8971C27.4272 27.324 27.8887 25.7854 28.755 24.4723L28.8468 24.3338C29.6497 23.116 30.0772 21.689 30.076 20.2302V19.4219H29.7175C29.4351 19.4219 29.2031 19.1916 29.2031 18.9073V16.8633C29.2033 16.7269 29.2576 16.5962 29.354 16.4998C29.4504 16.4033 29.5812 16.349 29.7176 16.3488Z" fill="#CE4E61"/>
<path d="M30.9016 9.27587C30.8388 9.20784 30.7626 9.15364 30.6777 9.11674C30.5928 9.07983 30.5012 9.06103 30.4086 9.06153H28.955C29.1441 9.06153 29.3195 9.13733 29.4482 9.27587C29.5116 9.34324 29.5603 9.42308 29.5912 9.5103C29.622 9.59752 29.6344 9.69022 29.6275 9.78248V9.78433L29.5806 10.4819H31.0359L31.0826 9.78433V9.78238C31.0897 9.68997 31.0773 9.5971 31.0461 9.50982C31.0149 9.42255 30.9657 9.34283 30.9016 9.27587ZM33.9959 16.9333H35.611V18.8373H33.9959V16.9333Z" fill="#6B5B51"/>
<path d="M35.771 35.1362V38.3866C35.771 38.9533 35.3094 39.4153 34.7423 39.4153H36.3575C36.9245 39.4153 37.3861 38.9533 37.3861 38.3866V35.1362H35.771ZM36.1568 24.7935L36.0653 24.6554C35.1985 23.3424 34.737 21.8035 34.7381 20.2302V19.4219H33.123V20.2302C33.123 21.8065 33.5809 23.3363 34.45 24.6554L34.5414 24.7935C35.3446 26.0113 35.7722 27.4383 35.771 28.8971V29.2557H37.3861V28.8971C37.3861 27.4358 36.9614 26.0155 36.1569 24.7936L36.1568 24.7935Z" fill="#CE4E61"/>
<path d="M35.7714 29.8398H37.3865V34.5513H35.7714V29.8398Z" fill="#CCAE8B"/>
</g>
</g>
</g>
<defs>
<filter id="filter0_d_1_2" x="-266.5" y="-32.5" width="1931" height="107" filterUnits="userSpaceOnUse" color-interpolation-filters="sRGB">
<feFlood flood-opacity="0" result="BackgroundImageFix"/>
<feColorMatrix in="SourceAlpha" type="matrix" values="0 0 0 0 0 0 0 0 0 0 0 0 0 0 0 0 0 0 127 0" result="hardAlpha"/>
<feMorphology radius="1.5" operator="dilate" in="SourceAlpha" result="effect1_dropShadow_1_2"/>
<feOffset/>
<feGaussianBlur stdDeviation="2"/>
<feComposite in2="hardAlpha" operator="out"/>
<feColorMatrix type="matrix" values="0 0 0 0 0 0 0 0 0 0 0 0 0 0 0 0 0 0 0.1 0"/>
<feBlend mode="normal" in2="BackgroundImageFix" result="effect1_dropShadow_1_2"/>
<feBlend mode="normal" in="SourceGraphic" in2="effect1_dropShadow_1_2" result="shape"/>
</filter>
<clipPath id="clip0_1_2">
<rect width="1920" height="5871" fill="white" transform="translate(-261 -75)"/>
</clipPath>
<clipPath id="clip1_1_2">
<rect width="40" height="40" fill="white" transform="translate(0.5)"/>
</clipPath>
</defs>
</svg>
